<svg width="96" height="100" viewBox="0 0 96 100" fill="none" xmlns="http://www.w3.org/2000/svg">
<rect width="96" height="100" fill="#1E1E1E"/>
<g id="MacBook Air - 17" clip-path="url(#clip0_828_5118)">
<rect width="1280" height="9382" transform="translate(-651.112 -6056.09)" fill="white"/>
<g id="Frame 1000011215">
<g id="Frame 1000010959">
<g id="Frame 47279">
<g id="Group">
<g id="Group_2">
<path id="Vector" d="M47.5644 0C47.7018 0.262301 47.8267 0.524601 47.9641 0.786902C48.6261 1.83611 49.413 2.88531 50.3248 3.54731C51.374 4.33421 52.6855 4.73391 53.997 4.85881C54.9213 4.99621 55.8331 4.99621 56.8823 5.12111C60.5545 5.52081 64.1019 6.43262 67.3869 8.40612C70.2722 10.1173 72.508 12.3531 74.0818 15.2384C74.2192 15.5007 74.4815 15.6381 74.7438 15.763C76.9796 16.2876 79.2029 16.8122 81.4387 17.7365C83.9368 18.6608 86.2975 19.9723 88.3959 21.8084C91.1563 24.0442 92.9924 26.9296 94.3039 30.2146C94.7036 31.2638 95.0908 32.4504 95.3531 33.4996C95.3531 33.637 95.478 33.8993 95.478 34.0242V38.883V63.5767V77.104V90.1066V99.2996V99.5619C95.478 99.8242 95.3531 99.8242 95.2157 99.8242H92.7176H78.6908H68.8358H54.1344H39.5455H29.6905H14.9891H0.412694C-0.111908 99.8242 0.0129975 99.8242 0.0129975 99.4245V34.8111C0.0129975 32.975 0.412694 31.2638 1.1996 29.69C2.2488 27.3293 3.82261 25.3558 5.6712 23.6446C8.81881 20.6218 12.6284 18.386 16.7003 17.0745C17.8869 16.6748 19.1984 16.2876 20.5099 16.0253C20.7722 16.0253 21.0345 15.8879 21.1719 15.6256C23.4077 11.6911 26.6927 8.93072 30.7647 7.35692C32.7382 6.57001 34.7117 6.04541 36.6727 5.78311C38.1216 5.52081 39.6954 5.38341 41.1443 5.25851C41.9312 5.12111 42.5932 4.85881 43.3801 4.4716C44.829 3.6847 46.0031 2.6355 46.9274 1.1866C47.1647 0.786903 47.427 0.399697 47.5644 0Z" fill="#057954"/>
<path id="Vector_2" d="M93.7918 74.081V77.6283V86.4341V86.6964C93.7918 86.8338 93.7918 86.8338 93.6544 86.8338H93.2547H85.2483H85.1109C84.986 86.8338 84.8486 86.8338 84.8486 86.5715V85.3849V82.3622C84.8486 82.0999 84.8486 82.0999 84.5863 82.0999H76.5799H72.1083C71.846 82.0999 71.7211 82.0999 71.7211 81.7002V77.8906V77.6283C71.7211 77.4909 71.7211 77.4909 71.5837 77.4909H70.7968H61.4664H43.6049H34.1496H24.9566H24.0323C23.8949 77.4909 23.77 77.6283 23.77 77.7532V79.5893V81.95C23.77 82.2123 23.77 82.2123 23.5077 82.2123C20.3601 82.2123 17.3373 82.2123 14.1772 82.0749H11.0296C10.6299 82.0749 10.6299 82.0749 10.6299 82.4746V86.5465V86.8088C10.6299 86.9462 10.6299 86.9462 10.4925 86.9462H9.56825H2.34873C2.08643 86.9462 2.08643 86.9462 2.08643 86.6839V86.4216V35.86C2.08643 33.3619 2.74842 31.1261 3.92253 29.0277C5.23404 26.7919 6.94524 24.8184 9.04365 23.2446C12.7159 20.2219 16.9252 18.3858 21.5217 17.3366C21.9214 17.1992 22.1837 17.0743 22.446 16.6746C24.5444 12.9899 27.7045 10.3669 31.639 8.93046C33.6125 8.14356 35.7109 7.61895 37.6844 7.35665C38.9959 7.09435 40.3074 6.95696 41.6189 6.83205C42.4058 6.69466 43.0678 6.43235 43.7173 6.04515C45.1662 5.25825 46.2154 4.20904 47.1272 2.89754C47.2646 2.76014 47.2646 2.63524 47.3895 2.49784C47.5144 2.36045 47.5144 2.23554 47.6518 2.09814C47.7767 2.23554 47.7767 2.36045 47.9141 2.49784C48.3138 3.28474 48.8384 4.07165 49.6253 4.73364C50.6745 5.78285 51.986 6.30745 53.4349 6.56975C54.0969 6.70715 54.8838 6.70715 55.5334 6.83205C59.2056 7.09435 62.8903 7.88125 66.1753 9.71736C69.198 11.2912 71.5587 13.6519 73.2699 16.6746C73.4073 16.9369 73.5322 17.0743 73.7945 17.0743C76.5549 17.5989 79.3153 18.3858 81.9383 19.5724C84.6987 20.8839 87.1968 22.5951 89.2952 24.9558C91.1313 27.0542 92.4428 29.5523 93.3671 32.1753C93.3671 32.3127 93.5045 32.4376 93.5045 32.575C93.9042 33.4993 94.0291 34.5485 94.0291 35.5977V35.7351V59.1174V72.12V72.6446H93.9042C93.6419 72.12 93.5045 71.5954 93.3796 71.0708C92.193 66.4743 91.0189 62.0027 89.8323 57.4062C88.7831 53.1969 87.5965 49 86.5473 44.8032C86.1476 43.3543 85.7604 42.0428 85.4981 40.5939C85.3607 40.0693 85.3607 40.0693 84.8361 40.0693C83.5246 40.0693 83.7869 40.0693 83.5246 39.0201C83.3872 38.4955 83.3872 38.4955 82.8626 38.3581H81.9758C81.7135 38.3581 81.4512 38.2207 81.4512 37.8335V37.6961C81.3138 36.9092 81.3138 36.9092 80.5269 36.9092H80.1272C79.7275 36.9092 79.6026 36.7718 79.4777 36.3846C79.4777 36.2472 79.4777 36.2472 79.3403 36.1223C79.3403 35.7226 79.078 35.5977 78.6783 35.5977C75.6556 35.198 72.7703 34.4111 70.1473 33.0996C68.9607 32.4376 67.7866 31.7881 66.6 31.0012C66.3377 30.7389 66.0754 30.6015 65.6757 30.3392C65.1511 29.9395 64.7514 29.4149 64.2268 29.1526C63.0402 28.4906 61.6037 28.2283 60.2798 28.1034C58.9682 27.966 57.5193 28.1034 56.2078 28.3657C53.972 28.8903 52.011 29.9395 50.1624 31.251C49.7627 31.5133 49.2381 31.913 48.8509 32.3002C48.5886 32.5625 48.4512 32.5625 48.1889 32.3002C46.4777 30.7264 44.3793 29.6772 42.2809 28.7529C40.832 28.2283 39.2582 27.966 37.547 27.966C36.0981 27.966 34.6617 28.2283 33.3377 28.7529C32.5508 29.1526 31.7639 29.5398 31.2393 30.3267L31.1144 30.4641C29.2783 31.7756 27.3048 32.6999 25.2064 33.4868C22.9706 34.2737 20.7348 34.6734 18.5115 34.9357C18.1118 34.9357 17.9869 35.0731 17.9869 35.4603C17.862 36.3846 17.9869 36.5095 16.8003 36.6469C16.2757 36.6469 16.0134 36.9092 15.876 37.4338C15.7386 37.9584 15.6137 37.9584 15.214 38.0958C14.9517 38.0958 14.6894 38.2332 14.4271 38.2332C14.1648 38.2332 14.0274 38.3706 14.0274 38.6329C13.89 38.8952 13.89 39.2949 13.7651 39.5572C13.6277 39.8195 13.5028 39.9569 13.2405 39.9569H12.5785C12.1788 39.9569 12.0539 40.0943 11.9165 40.4815C10.8673 44.416 9.68066 48.4879 8.63146 52.4349C7.70716 55.9822 6.65796 59.3922 5.74615 62.9395C4.82185 66.0871 4.03495 69.2472 3.12314 72.3948C2.99823 72.6571 2.99823 73.0568 2.99823 73.3191C2.99823 74.106 3.66023 74.6306 4.30974 74.768H4.70943C8.51904 74.768 12.3287 74.9054 16.2632 74.768C20.5974 74.6306 24.9316 74.768 29.4032 74.6306C33.7374 74.4932 37.9342 74.6306 42.2684 74.4932C43.0553 74.4932 43.9796 74.3558 44.7665 74.3558C45.1662 74.3558 45.4285 74.4932 45.6908 74.7555C46.2154 75.4175 46.74 75.8047 47.5269 76.067C48.8384 76.4667 50.4122 76.067 51.1991 75.0178C51.4614 74.6181 51.8611 74.4932 52.2483 74.4932C54.6091 74.4932 56.9823 74.6306 59.343 74.6306H63.8146C65.3884 74.768 66.8373 74.6306 68.4111 74.768C69.86 74.9054 71.4338 74.768 72.8827 74.9054C74.4565 75.0428 76.0303 74.9054 77.6041 75.0428C79.053 75.1802 80.4894 75.0428 81.9383 75.1802C83.5121 75.3176 85.0859 75.1802 86.6722 75.3176C88.1211 75.455 89.5575 75.3176 91.0064 75.3176C91.4061 75.3176 91.7933 75.455 92.3179 75.455C92.9799 75.455 93.5045 75.1927 93.7668 74.6681C93.5295 74.3433 93.5295 74.2059 93.7918 74.081Z" fill="white"/>
<path id="Vector_3" d="M93.6671 74.0812C93.5297 74.6058 93.1425 75.0055 92.7428 75.1304C92.6054 75.2678 92.3431 75.2678 92.2182 75.2678C89.5952 75.2678 86.9597 75.1304 84.3367 75.1304C82.1009 75.1304 79.8651 74.993 77.6418 74.993C74.6191 74.993 71.5964 74.8556 68.5862 74.8556C65.5635 74.8556 62.5408 74.7182 59.5181 74.7182C56.7577 74.7182 54.1346 74.5808 51.3742 74.5808C51.1119 74.5808 50.987 74.5808 50.8496 74.8431C50.0627 75.8923 49.1384 76.417 47.8269 76.417C46.6403 76.417 45.7285 75.755 45.0665 74.8431C44.8042 74.5808 44.6668 74.4435 44.2796 74.4435C39.9454 74.4435 35.4863 74.4435 31.1521 74.5808C27.4674 74.5808 23.6578 74.5808 19.9856 74.7182C15.1268 74.7182 10.1305 74.7182 5.27173 74.8556H4.22253C3.03593 74.8556 2.38642 74.0687 2.51133 72.8821C2.64873 72.2201 2.77363 71.6955 3.03593 71.1709C5.79634 61.3159 8.55674 51.336 11.3171 41.4935C11.4545 41.0938 11.5794 40.7066 11.7168 40.3069C11.7168 40.0446 11.8542 40.0446 12.1165 40.0446C12.5162 40.0446 12.7785 40.0446 13.1657 39.9072C13.428 39.9072 13.428 39.7698 13.5654 39.6449C13.7028 39.2452 13.8277 38.858 13.8277 38.4583C13.8277 38.3209 13.9651 38.196 14.09 38.196C14.4772 38.196 14.8769 38.0586 15.4015 38.0586C15.5389 38.0586 15.6638 37.9212 15.6638 37.7963C15.6638 37.534 15.8012 37.2717 15.8012 37.0094C15.8012 36.7471 15.9386 36.7471 16.2009 36.7471C16.6006 36.7471 16.9878 36.6097 17.3875 36.6097C17.5249 36.6097 17.6498 36.6097 17.6498 36.3474C17.6498 36.0851 17.7872 35.6854 17.7872 35.4231C17.7872 35.0234 17.7872 35.0234 18.1869 35.0234C21.4719 34.6237 24.6195 33.8368 27.5173 32.5253C28.7039 32.0007 29.7531 31.3387 30.8024 30.6892C30.8024 30.6892 30.9397 30.6892 30.9397 30.5518C31.0771 30.6892 31.3394 30.5518 31.4644 30.6892C32.3886 32.6627 33.1756 34.6362 34.0874 36.7346L39.9954 50.5241C41.182 53.4094 42.4935 56.3072 43.6676 59.0676C43.6676 59.205 43.805 59.3299 43.6676 59.4673C43.5302 59.6047 43.4053 59.6047 43.2679 59.4673C43.0056 59.0676 42.8682 58.6804 42.6059 58.1558C39.8455 51.7232 37.0851 45.1532 34.3372 38.7206C33.288 36.3599 32.2388 33.9867 31.3145 31.5011C31.3145 31.3637 31.1771 31.3637 31.1771 31.2388C30.6525 32.4253 30.1279 33.5995 29.4659 34.7861C28.679 36.4973 27.8921 38.196 27.1052 39.7823C26.1809 41.8807 25.2691 43.9916 24.2199 45.9526C23.2956 47.9261 22.3837 49.8996 21.4594 51.8606C20.4102 54.2213 19.361 56.4571 18.3118 58.8178C18.3118 58.9552 18.1744 59.0801 18.0495 59.2175H17.6498C17.5249 59.0801 17.6498 58.9552 17.7872 58.8178C19.6233 54.7459 21.5968 50.5366 23.4329 46.4772C25.1441 42.6676 26.9803 38.858 28.6915 35.0484C29.2161 33.9992 29.6158 32.8126 30.1404 31.7634C30.1404 31.626 30.2778 31.5011 30.2778 31.3637C29.7532 31.626 29.3535 31.8883 28.8289 32.1506C26.7304 33.3372 24.4946 34.1241 22.2588 34.6487C21.0722 34.911 19.7607 35.1733 18.4492 35.3107C18.1869 35.3107 18.0495 35.4481 18.0495 35.7104C17.6498 38.0711 16.8629 40.3069 16.3383 42.6676C15.1517 47.1392 13.8402 51.5983 12.6661 56.1948C11.6169 60.0044 10.5677 63.9389 9.51851 67.7485C9.11881 69.06 8.73161 70.3715 8.46931 71.6955C8.33191 72.0952 8.46931 72.0952 8.73161 72.2201C9.91821 72.4824 11.2297 72.6198 12.5412 72.7447C13.3281 72.7447 14.115 72.8821 14.777 72.7447C16.8754 72.6073 19.1112 72.4824 21.2096 71.9578C21.4719 71.9578 21.8716 71.6955 22.1339 71.6955C25.1566 70.5089 28.3043 69.4597 31.5893 68.9351C36.7104 68.1482 41.5692 68.7977 46.1657 71.2958C46.6903 71.5581 47.2149 71.8204 47.7395 72.2201C48.0018 72.3575 48.0018 72.3575 48.0018 72.0827V71.8204V39.2702V39.0079V38.2209V35.5979C48.1392 35.1982 48.2641 35.1982 48.5264 35.4605C48.6638 35.7228 48.5264 35.9851 48.5264 36.2474V71.8454C48.5264 71.9828 48.389 72.2451 48.6638 72.37C48.9261 72.37 49.0635 72.2326 49.1884 72.1077C51.9488 70.5339 54.9715 69.6096 58.1191 69.085C59.1683 68.9476 60.3549 68.8227 61.5415 68.8227C64.1645 68.8227 66.6626 69.2224 69.1607 70.0093C70.8719 70.5339 72.5706 71.1959 74.2819 71.8454C76.5177 72.6323 78.8784 73.2943 81.2391 73.4192C83.5998 73.5566 85.8356 73.2818 88.1963 72.6323C88.4586 72.4949 88.596 72.37 88.4586 72.1077C86.7474 65.6751 85.0487 59.2425 83.3375 52.7974C82.026 47.9386 80.7145 42.9424 79.3905 38.0836C79.2531 37.559 79.1282 37.0344 78.9908 36.5098C78.8534 35.7228 78.7285 35.7228 78.0665 35.5854C75.8307 35.1858 73.5949 34.6612 71.3716 33.7493C69.6604 33.0873 67.9616 32.1755 66.5127 30.9889C68.2239 34.7985 69.7978 38.6082 71.5089 42.5427C73.3451 46.8769 75.1812 51.2111 77.0298 55.4079C77.4295 56.4571 77.9541 57.5063 78.3413 58.5555C78.4662 58.6929 78.6036 58.9552 78.4662 59.0801H78.2039C78.0665 58.9427 78.0665 58.8178 77.9416 58.6804C76.755 55.92 75.4435 53.0347 74.2694 50.2743C72.4333 45.9401 70.5971 41.6059 68.6236 37.2717C67.8367 35.2982 66.9124 33.3247 66.1255 31.4886C66.1255 31.3512 65.9881 31.2263 65.9881 31.0889C65.7258 31.7509 65.3261 32.4004 65.0638 32.925C64.2769 34.6362 63.49 36.3349 62.7031 38.1835C61.7788 40.157 60.867 42.1305 59.9427 44.0915C59.1558 45.8027 58.3689 47.5014 57.582 49.2126C56.7951 50.9238 56.0082 52.6225 55.2213 54.2088L53.2478 58.543C53.2478 58.6804 53.1229 58.8053 53.1229 58.9427C52.9855 59.0801 52.8606 59.0801 52.7232 59.0801C52.5858 58.9427 52.7232 58.8178 52.7232 58.5555C53.3852 57.1066 54.0347 55.6702 54.6967 54.2213C55.7459 51.8606 56.7951 49.4874 57.8443 47.2641C58.7686 45.2906 59.6804 43.3296 60.6047 41.3561C61.529 39.3826 62.4408 37.2842 63.3651 35.3107C64.0271 33.9992 64.5517 32.6877 65.2012 31.2388C65.3386 30.9764 65.4635 30.7142 65.6009 30.4518C65.6009 30.3145 65.476 30.0522 65.6009 29.9272C65.8632 29.9272 66.0006 30.0646 66.1255 30.1895C69.0108 32.4254 72.171 33.8618 75.7183 34.6612C76.7675 34.9235 77.6918 35.0609 78.741 35.1858C79.0033 35.1858 79.1282 35.3231 79.2656 35.5854C79.2656 35.8478 79.403 35.9851 79.403 36.2474C79.403 36.5097 79.5404 36.5098 79.8027 36.5098C80.2023 36.5098 80.5896 36.5097 80.9893 36.6471C81.2515 36.6471 81.2516 36.6471 81.3889 37.0468C81.3889 37.3091 81.5264 37.5714 81.5264 37.7088C81.5264 37.8462 81.6513 37.9711 81.7887 37.9711H83.1002C83.3624 37.9711 83.3625 38.1085 83.4998 38.2334C83.6372 38.6331 83.6372 39.0203 83.7621 39.2826C83.7621 39.42 83.8996 39.5449 84.0245 39.5449H85.0737C85.4734 39.5449 85.4734 39.5449 85.4734 39.8072C86.1353 42.3054 86.7849 44.8035 87.4469 47.2891C89.5453 55.1706 91.5188 63.0521 93.6172 70.9336C93.7546 71.3333 93.8795 71.8579 94.0169 72.2451V72.5074C94.1543 72.9071 94.1543 73.2943 94.0169 73.694C93.792 73.9438 93.792 74.0812 93.6671 74.0812Z" fill="#26231E"/>
<path id="Vector_4" d="M32.7257 85.7725C32.988 85.9099 32.988 86.0348 33.1254 86.1722C34.1746 87.746 34.8366 89.4572 34.9615 91.2933C35.0989 92.0802 35.0989 92.8671 35.2238 93.654C35.3487 94.5783 35.8858 95.1029 36.7976 95.1029C37.0599 95.1029 37.3222 95.1029 37.5845 94.9655C38.7711 94.7032 39.6829 94.3035 40.7321 93.654C40.2075 92.8671 39.5455 92.7297 38.4963 92.992C38.4963 92.4674 38.7586 91.9428 39.1583 91.6805C39.558 91.4182 40.0826 91.2808 40.4698 91.2808C41.7813 91.1434 42.9679 91.2808 44.2794 91.6805C44.804 91.8179 44.804 92.0802 44.6791 92.4674C44.5542 92.7297 44.4168 92.8671 44.1545 92.992C43.7548 93.1294 43.3676 93.3917 42.843 93.654C42.5807 93.7914 42.5807 93.7914 42.7056 94.0537C42.843 94.316 43.1053 94.4534 43.3676 94.4534C44.1545 94.7157 44.8165 94.5908 45.6034 94.316C46.128 94.0537 46.2654 93.654 46.2654 93.1294C45.8657 90.5064 45.6034 87.746 45.2162 85.123C45.0913 83.9364 44.9539 82.6249 44.6916 81.4383C44.6916 80.9137 44.6916 80.6514 45.0913 80.1268C45.491 81.0511 45.8782 81.838 46.4028 82.7498H45.8782C45.7408 82.7498 45.6159 82.7498 45.6159 83.0121C45.7533 83.5367 45.7533 84.1987 45.8782 84.7233C46.0156 85.9099 46.1405 87.084 46.2779 88.2706C46.4153 89.3198 46.5402 90.2441 46.6776 91.2933C46.815 92.2176 46.815 93.1294 46.5402 94.0537C46.2779 94.978 45.7533 95.6275 44.7041 95.8898C44.0421 96.0272 43.3926 95.8898 42.7306 95.6275C42.3309 95.3652 41.9437 95.1029 41.6814 94.7032C41.544 94.5658 41.4191 94.5658 41.2817 94.5658C40.4948 95.0904 39.7079 95.4901 38.7836 95.7524C38.1216 96.0147 37.4721 96.1521 36.8101 96.1521C36.4104 96.1521 36.1481 96.0147 35.7609 95.8898C35.3612 95.7524 35.2363 95.4901 35.0989 95.1029C34.974 94.7032 34.8366 94.316 34.8366 93.9163C34.8366 93.654 34.8366 93.3917 34.6992 93.1294H34.5618C33.6375 94.8406 32.2011 95.8898 30.6273 96.8016C30.4899 96.939 30.2276 96.939 30.1027 97.0639C29.578 97.3262 28.9161 97.3262 28.3914 97.2013C27.7295 97.0639 27.4672 96.6767 27.3422 96.1521C27.2049 95.7524 27.2049 95.3652 27.3422 94.9655V94.4409C27.2049 94.5783 26.9425 94.7032 26.8176 94.8406C25.8933 95.5026 24.9815 96.0272 23.9323 96.4144C23.008 96.8141 21.9588 96.939 21.047 96.939C18.8112 96.8016 17.8994 95.2278 17.8994 93.654C17.8994 92.6048 18.1617 91.6805 18.6863 90.8936C18.8237 90.7562 18.9486 90.4939 19.086 90.369C19.086 90.6313 18.9486 90.7687 18.9486 90.8936C18.6863 91.5556 18.424 92.3425 18.424 93.1294C18.424 94.316 18.9486 95.1029 20.1352 95.4901C21.3218 95.8898 22.371 95.7524 23.5451 95.4901C24.332 95.2278 25.1189 94.8281 25.9058 94.4409C26.955 93.7789 27.7419 93.1294 28.6662 92.3425C28.8036 92.2051 28.9285 92.0802 28.9285 91.8179C28.9285 90.7687 28.7911 89.5821 28.6662 88.5329C28.5288 87.4837 28.5288 86.5594 28.4039 85.5102C28.2665 84.3236 28.1416 83.1495 28.0042 82.1003C27.8668 81.4383 27.8668 80.6514 27.7419 80.0018V79.6021C27.8793 79.4648 28.0042 79.3398 28.1416 79.3398C28.279 79.3398 28.279 79.4772 28.4039 79.6021C28.6662 80.3891 28.9285 81.051 29.1908 81.8379V81.9753C29.0534 81.9753 28.9285 81.713 28.6662 81.713V81.9753C28.8036 84.0738 29.0659 86.1846 29.1908 88.1457C29.1908 88.9326 29.3157 89.7195 29.3157 90.5064C29.3157 91.031 29.1908 91.693 29.0534 92.2176C28.7911 92.8796 28.5288 93.5291 27.8668 93.9288C27.7295 94.0662 27.6045 94.1911 27.6045 94.3285C27.6045 94.5908 27.6045 94.9905 27.7419 95.2528C27.8793 95.6525 28.1416 95.9148 28.6662 95.9148C29.1908 95.9148 29.7154 95.9148 30.24 95.6525C31.4266 95.1279 32.4758 94.341 33.5251 93.4167C33.9247 93.017 34.187 92.6298 34.4494 92.2301C34.5867 92.0927 34.5867 91.8304 34.5867 91.7055C34.3244 89.9943 33.7998 88.4205 33.1378 86.8466C33.0005 86.7093 33.0004 86.5843 33.0004 86.322C32.7257 86.6843 32.7257 86.2971 32.7257 85.7725Z" fill="white"/>
<path id="Vector_5" d="M58.731 97.0636C60.1799 96.4016 61.6163 95.7521 63.0652 95.0901C64.9013 94.1658 66.7374 93.1166 68.586 92.0674C68.9857 91.8051 69.3729 91.5428 69.7726 91.2805C70.1723 91.0182 70.4346 90.6185 70.4346 90.0939C70.4346 89.8316 70.4346 89.6942 70.2972 89.4319C69.7726 88.645 69.248 87.8581 68.8483 86.9338C68.7234 86.5341 68.586 86.2718 68.7234 85.8846C68.7234 85.7472 68.7234 85.6223 68.8483 85.4849C69.248 85.7472 69.5103 86.1469 69.8975 86.4092C70.0224 86.5466 69.8975 86.6715 69.8975 86.8089C69.7601 86.9463 69.7601 87.0712 69.8975 87.2086C70.1598 87.6082 70.4221 87.9955 70.6844 88.2578C70.9467 88.6575 71.0841 89.1821 71.0841 89.7067C71.0841 90.1064 70.9467 90.4936 70.9467 90.8933C70.8093 91.4179 70.547 91.9425 70.0224 92.2048C69.7601 92.3422 69.4978 92.6045 69.2355 92.7294C69.0981 92.8668 69.0981 92.8668 68.9732 92.9917C68.8358 93.5163 68.8358 94.0409 68.9732 94.5655C69.1106 95.3524 69.6352 95.7521 70.4221 95.877C71.0841 95.877 71.6087 95.877 72.1333 95.6147C73.7071 94.8278 75.156 93.7786 76.3426 92.4671C76.4675 92.3297 76.4675 92.2048 76.6049 92.0674C76.7423 91.93 76.7423 91.6677 76.6049 91.5428C76.4675 91.4054 76.3426 91.4054 76.2052 91.4054C75.6806 91.5428 75.156 91.5428 74.6314 91.5428C73.8445 91.4054 73.3199 90.8808 73.7071 89.969C73.7071 89.8316 73.8445 89.7067 73.8445 89.5693C74.3691 88.5201 75.4183 88.3827 76.2052 89.1696C76.7298 89.6942 76.9921 90.3562 77.1295 91.0057C77.1295 91.1431 77.1295 91.268 77.2669 91.4054C77.3918 91.93 77.2669 92.4546 76.8672 92.9792C75.818 94.2907 74.6314 95.4773 73.0576 96.2642C72.2707 96.6639 71.6087 96.9262 70.6969 96.9262C69.3854 96.9262 68.7234 96.2642 68.5985 94.9527V93.5038V93.1291C68.4611 93.1291 68.3362 93.2665 68.1988 93.2665C67.0122 94.0534 65.7007 94.8403 64.3892 95.5023C63.7272 95.902 63.0777 96.1643 62.2908 96.2892C60.9543 96.8013 59.7802 96.9387 58.731 97.0636C58.731 97.201 58.731 97.201 58.731 97.0636Z" fill="white"/>
<path id="Vector_6" d="M52.6856 91.9428C52.6856 92.3425 52.5482 92.7297 52.5482 93.1294C52.5482 93.654 52.5482 94.1786 52.6856 94.7032C52.9479 95.4901 53.4725 95.8898 54.3968 96.0147C55.1837 96.0147 55.8457 95.8773 56.4952 95.4901C57.5444 94.9655 58.4687 94.3035 59.3805 93.5166C59.6428 93.2543 59.9051 93.1169 60.0425 92.8546C60.1799 92.7172 60.3048 92.5923 60.4422 92.4549C60.7045 92.0552 60.8419 91.668 60.5796 91.1434C60.3173 90.6188 60.055 89.9568 59.7927 89.4322C59.6553 89.0325 59.5304 88.7702 59.5304 88.383V87.8584C59.7927 87.9958 59.9301 88.2581 60.1924 88.383C60.4547 88.5204 60.5921 88.7827 60.8544 88.9076V89.045C60.717 89.1824 60.5921 89.1824 60.5921 89.3073C60.5921 89.4447 60.7295 89.5696 60.8544 89.707C61.5039 90.8936 61.379 92.2051 60.8544 93.3792C60.8544 93.5166 60.717 93.5166 60.717 93.5166C59.7927 94.4409 58.7435 95.3527 57.5694 96.1396C56.9074 96.5393 56.2579 96.9265 55.471 97.0639C55.0713 97.2013 54.6841 97.2013 54.2844 97.0639C53.6224 96.9265 53.2352 96.5393 52.8355 96.0147C52.4358 95.3527 52.4358 94.7032 52.4358 94.0412C52.161 93.3917 52.2859 92.6048 52.6856 91.9428Z" fill="white"/>
<path id="Vector_7" d="M49.138 94.8279C49.138 93.7787 49.0006 92.8544 49.0006 91.8052C48.8632 90.3563 48.7383 88.7825 48.6009 87.3336C48.4635 85.7598 48.3386 84.3109 48.0763 82.7371C48.0763 82.2125 47.9514 81.6879 47.814 81.2882C47.814 81.0259 47.814 80.6262 47.9514 80.3639C47.9514 80.2265 48.0763 80.1016 48.2137 80.1016C48.3511 80.1016 48.3511 80.239 48.476 80.3639C48.8757 81.1508 49.2629 81.8128 49.4003 82.7246V82.9869C49.138 82.8495 49.0006 82.7246 48.7383 82.7246C48.7383 82.9869 48.7383 83.3866 48.8757 83.6489C49.0006 85.2227 49.2754 86.9339 49.4003 88.5077C49.5377 89.5569 49.6626 90.6061 49.6626 91.6553C49.8 92.7045 49.6626 93.6288 49.2629 94.5406C49.2754 94.5656 49.2754 94.703 49.138 94.8279Z" fill="white"/>
<path id="Vector_8" d="M65.0262 82.088C64.7639 81.9506 64.6266 81.8257 64.3643 81.6883V81.9506C64.5016 83.5244 64.7639 85.0982 64.8889 86.6845C65.0262 87.996 65.1512 89.1826 65.2886 90.4941C65.4259 91.4184 65.2886 92.4676 64.8889 93.2545C64.8889 93.3919 64.7515 93.3919 64.7515 93.5168H64.6141C64.6141 92.9922 64.4767 92.5925 64.4767 92.0679C64.3393 90.4941 64.2144 88.9203 64.077 87.4714C63.8147 85.373 63.6773 83.1372 63.2901 81.0388C63.2901 80.6391 63.1527 80.2519 63.2901 79.8522C63.2901 79.7148 63.2901 79.5899 63.4275 79.5899C63.5649 79.4525 63.8272 79.4525 63.8272 79.5899C64.3767 80.2519 64.7639 81.0388 65.0262 82.088Z" fill="white"/>
<path id="Vector_9" d="M56.4952 86.2973C56.4952 86.5596 56.3579 86.697 56.3579 86.9593C56.233 87.359 56.0956 87.7462 55.8333 88.1459C55.571 88.4082 55.3087 88.8079 55.1713 89.0702C55.1713 89.0702 55.1713 89.2076 55.3087 89.2076C55.9706 89.6073 56.233 90.2568 56.233 91.0437C56.233 91.306 56.2329 91.5683 56.0956 91.8306C55.9706 92.2303 55.8333 92.6175 55.4336 92.8798C55.1713 93.1421 54.7716 93.2795 54.3843 93.4044C53.8597 93.5418 53.4601 93.4044 53.3352 92.8798V92.6175C53.3352 91.5683 53.4725 90.644 54.1221 89.7322C54.2594 89.5948 54.2594 89.4699 54.1221 89.3325C53.7224 88.9328 53.4601 88.5456 53.0728 88.021C52.9354 87.7587 52.8105 87.6213 52.8105 87.359V86.697C53.3351 86.9593 53.7348 87.2216 54.2594 87.4839C53.9971 87.8836 53.9971 87.8836 54.3968 88.2708C54.5342 88.4082 54.5342 88.4082 54.7965 88.5331C55.3211 87.7462 55.9831 86.9593 56.5077 86.1724V86.2973H56.4952Z" fill="white"/>
<path id="Vector_10" d="M36.3979 88.533C36.3979 88.1333 36.6602 87.746 37.0599 87.6087C37.9842 87.084 38.7711 86.5595 39.683 86.0348C40.9945 85.2479 42.1811 84.5859 43.4926 83.799C43.4926 83.799 43.63 83.799 43.63 83.6617C43.7674 83.6617 43.8923 83.5243 43.8923 83.6617C44.0172 83.799 44.0172 83.924 43.8923 84.0613C43.7549 84.1987 43.63 84.1987 43.63 84.3236C41.5316 85.5102 39.2957 86.6844 37.1973 87.9959C37.0599 87.9959 36.935 88.1333 36.935 88.1333C36.7976 88.2707 36.7976 88.3956 36.7976 88.533C36.7976 88.6703 36.935 88.6703 37.0599 88.6703C37.1849 88.6703 37.3222 88.8077 37.4596 88.9327C37.4596 89.07 37.5845 89.07 37.4596 89.1949C37.4596 89.3323 37.3222 89.3323 37.1973 89.3323C36.5353 89.4448 36.3979 89.0576 36.3979 88.533Z" fill="white"/>
<path id="Vector_11" d="M31.9265 83.2743C32.4511 82.8746 33.1131 82.4874 33.6377 81.9628C32.9882 81.8254 32.3262 81.9628 31.8016 82.1002C31.6642 82.1002 31.5393 82.2376 31.4019 82.1002C31.2645 81.9628 31.4019 81.8379 31.4019 81.7005C31.4019 81.4382 31.6642 81.1759 31.8016 81.0385C32.4636 80.5139 33.2505 80.3765 34.0374 80.6388C34.2997 80.7762 34.2997 80.7762 34.2997 81.0385C34.1748 82.35 33.5128 83.012 32.2013 83.1369C31.9265 83.2743 31.9265 83.3992 31.9265 83.2743Z" fill="white"/>
<path id="Vector_12" d="M50.3247 84.1984C51.3739 83.5364 52.4231 82.8869 53.3474 82.1C53.6097 81.8377 53.872 81.7003 54.0094 81.438C54.0094 81.3006 53.872 81.3006 53.7471 81.1757C53.4848 80.9134 53.3474 80.776 53.4848 80.5137V80.2514C53.3474 80.114 53.3474 79.9891 53.4848 79.8517C53.4848 79.5894 53.6222 79.5894 53.8845 79.5894C54.5465 79.7268 55.0711 80.114 55.3334 80.776C55.4708 81.0383 55.4708 81.3006 55.196 81.438C55.0586 81.7003 54.7963 81.7003 54.534 81.5754C54.2717 81.438 54.2717 81.5753 54.1343 81.7127C53.0726 82.8744 51.7611 83.6613 50.3247 84.1984C50.3247 84.3233 50.3247 84.3233 50.3247 84.1984Z" fill="white"/>
<path id="Vector_13" d="M38.6335 82.088C38.6335 81.5634 38.6335 81.1637 38.7708 80.6391C38.7708 80.5017 38.7708 80.2394 38.9082 80.1145C39.0456 79.8522 39.1705 79.7148 39.4328 79.7148C39.6951 79.7148 39.8325 79.8522 39.9574 80.1145C39.9574 80.2519 39.9574 80.2519 39.8201 80.3768H39.4204C39.2954 80.3768 39.1581 80.3768 39.1581 80.6391C39.0332 80.9014 39.0332 81.1637 39.0332 81.426C39.0332 81.9506 39.1581 82.3503 39.0332 82.875C39.0332 83.0123 39.0331 83.1372 38.8958 83.1372C38.7584 83.1372 38.6335 82.9999 38.6335 82.875C38.4961 82.7376 38.3712 82.4753 38.3712 82.3503C38.2338 82.213 38.2338 81.9506 38.1088 81.8257C37.9715 81.7008 37.8466 81.5634 37.7092 81.5634C37.4469 81.5634 37.3095 81.426 37.0472 81.3011C36.7849 81.1637 36.6475 80.7765 36.6475 80.6391C36.7849 80.5017 37.0472 80.3768 37.3095 80.5018C37.5718 80.5018 37.7092 80.6391 37.7092 80.9014C37.9715 81.3011 38.1089 81.5634 38.3712 81.9506C38.4961 81.9631 38.4961 82.088 38.6335 82.088Z" fill="white"/>
<path id="Vector_14" d="M60.0423 82.4872C59.78 82.4872 59.6426 82.3498 59.6426 82.0875C59.5177 81.8252 59.3803 81.5629 59.2429 81.3006C59.1055 81.0383 59.1055 81.0383 58.8432 81.0383C58.5809 81.0383 58.4435 81.0383 58.1812 80.9009C57.9189 80.7635 57.7815 80.6386 57.9189 80.3763C57.9189 80.2389 58.1812 79.9766 58.4435 79.9766C58.7058 79.9766 58.8432 80.114 58.9681 80.2389C59.2304 80.5012 59.4927 80.9009 59.6301 81.1632C59.6301 81.3006 59.7675 81.3006 59.8924 81.4255C59.8924 80.9009 60.0298 80.5012 60.0298 79.9766C60.0298 79.7143 60.0298 79.5769 60.1672 79.452C60.2921 79.1897 60.6918 79.1897 60.9541 79.3146C61.0915 79.452 61.0915 79.5769 60.9541 79.7143C60.8167 79.7143 60.8167 79.7143 60.6918 79.8517C60.4295 79.8517 60.4295 79.8517 60.2921 80.2514C60.1672 80.9134 60.1672 81.7003 60.0423 82.4872Z" fill="white"/>
<path id="Vector_15" d="M72.3829 86.5593C72.2455 86.5593 72.1206 86.5593 72.1206 86.4219C72.1206 86.2845 72.1206 86.2845 72.2455 86.2845C72.3829 86.2845 72.3829 86.1471 72.5078 86.1471C73.8193 85.3602 75.1308 84.6982 76.3174 83.9113C76.4548 83.9113 76.4548 83.7739 76.5797 83.7739C76.7171 83.7739 76.842 83.7739 76.842 83.9113V84.1736C76.842 84.1736 76.7046 84.311 76.5797 84.311C75.2682 84.973 74.0816 85.6225 72.7701 86.4094C72.6452 86.5593 72.5203 86.5593 72.3829 86.5593Z" fill="white"/>
<path id="Vector_16" d="M62.0158 84.848C62.0158 84.9854 61.8784 84.9854 61.7535 85.1103C61.2289 85.3726 60.8292 85.6349 60.3046 86.0346C59.5177 86.5592 58.7308 86.9589 57.8065 87.4835C57.6691 87.6209 57.5442 87.6209 57.4068 87.6209C57.2694 87.6209 57.2694 87.6209 57.1445 87.4835C57.1445 87.3461 57.1445 87.3461 57.2819 87.3461L57.4193 87.2087C58.7308 86.4218 60.0423 85.6349 61.3663 84.7106C61.5037 84.7106 61.5037 84.5732 61.6286 84.5732C61.8784 84.5857 62.0158 84.7231 62.0158 84.848Z" fill="white"/>
<path id="Vector_17" d="M66.3502 80.9135C66.2128 80.9135 66.0879 80.9135 66.0879 80.7761C66.0879 80.6387 66.0879 80.6387 66.2128 80.6387C66.2128 80.6387 66.3502 80.6387 66.3502 80.5013C67.6617 79.9767 68.8483 79.577 70.1598 79.0524C70.2972 79.0524 70.2972 79.0524 70.4221 78.915C70.547 78.915 70.6844 78.915 70.6844 79.0524C70.6844 79.1898 70.6844 79.3147 70.547 79.3147C70.4221 79.3147 70.4221 79.3147 70.2847 79.4521C68.9732 79.8518 67.7866 80.3764 66.4751 80.7636C66.4751 80.7761 66.4751 80.9135 66.3502 80.9135Z" fill="white"/>
<path id="Vector_18" d="M69.2353 82.8743C68.973 83.1366 68.8356 83.3989 68.5733 83.6612C68.4359 83.7986 68.4359 83.7986 68.311 83.6612C68.0487 83.3989 67.649 83.1366 67.3867 82.8743C67.2493 82.7369 67.2493 82.7369 67.3867 82.612C67.5241 82.4746 67.7864 82.2123 67.9113 82.0874C68.0487 81.95 68.0487 81.95 68.1736 82.0874C68.4484 82.3497 68.8356 82.612 69.2353 82.8743Z" fill="white"/>
<path id="Vector_19" d="M52.9483 83.3989C53.348 83.6612 53.7352 83.7986 54.1349 84.0609C54.2723 84.0609 54.2723 84.1983 54.1349 84.3232C53.9975 84.5855 53.8726 84.8478 53.7352 85.1101C53.4729 85.1101 53.2106 84.8478 52.9483 84.7104C52.4237 84.4481 52.4237 84.573 52.686 83.9235C52.686 83.7986 52.8109 83.6737 52.9483 83.3989Z" fill="white"/>
<path id="Vector_20" d="M54.659 83.0122C55.0587 83.2745 55.4459 83.4119 55.7082 83.6742C55.8456 83.8116 55.8456 83.8116 55.8456 83.9365C55.7082 84.1988 55.5833 84.3362 55.5833 84.5985C55.5833 84.7359 55.4459 84.7359 55.321 84.7359C55.0587 84.5985 54.659 84.3362 54.3967 84.2113C54.2593 84.2113 54.2593 84.0739 54.2593 83.949C54.5216 83.5368 54.5216 83.2745 54.659 83.0122Z" fill="white"/>
<path id="Vector_21" d="M23.5324 86.2969V87.2212V87.6209C23.5324 88.4078 23.7947 88.4078 24.4567 88.1455H24.5941C24.5941 88.5452 24.4567 88.8075 24.3318 89.0698C24.0695 89.3321 23.8072 89.3321 23.5449 89.0698C23.2826 88.8075 23.2826 88.4078 23.2826 88.0206C23.1327 87.471 23.2701 86.8215 23.5324 86.2969Z" fill="white"/>
<path id="Vector_22" d="M42.1811 97.3264C41.9188 97.5887 41.5191 97.851 40.9945 97.851C40.5948 97.851 40.3325 97.5887 40.5948 97.189C40.5948 97.0516 40.7322 96.9267 40.7322 96.7893C40.5948 96.6519 40.3325 96.6519 40.3325 96.527V96.2647C40.3325 96.0024 40.4699 96.0024 40.8571 96.0024C40.8571 96.1398 40.8571 96.4021 40.9945 96.527C41.1319 96.6519 41.1319 96.7893 40.9945 96.9267C40.9945 97.0641 40.8571 97.189 40.7322 97.189C40.5948 97.4513 40.5948 97.5887 40.8696 97.5887C41.1444 97.5887 41.2693 97.5887 41.5316 97.4513C41.9188 97.2015 42.0437 97.2015 42.1811 97.3264C42.1811 97.2015 42.1811 97.2015 42.1811 97.3264Z" fill="white"/>
<path id="Vector_23" d="M22.2087 91.5428C22.3461 91.9425 22.3461 92.3297 22.3461 92.7294C22.2087 92.7294 22.0838 92.592 22.0838 92.4671C21.9464 92.3297 21.9464 92.2048 21.8215 92.0674C21.6966 91.6677 21.4343 91.4054 21.0346 91.4054C20.8972 91.4054 20.6349 91.268 20.6349 91.1431C20.51 90.8808 20.51 90.7434 20.7723 90.7434C21.0346 90.606 21.172 90.7434 21.4343 90.8808C21.6966 91.1431 21.9589 91.5428 22.0838 91.8051C22.2212 91.9425 22.2212 91.6677 22.2212 91.6677C22.0838 91.6802 21.9464 91.5428 22.2087 91.5428Z" fill="white"/>
<path id="Vector_24" d="M42.3059 80.1267V80.6513C42.3059 81.1759 42.4433 81.3133 42.8305 81.1759H42.9679C42.9679 81.4382 42.8305 81.7005 42.5682 81.8379C42.3059 81.9752 42.0436 81.7005 41.9062 81.4382V80.9136C41.9062 80.6513 42.0436 80.389 42.1685 79.9893C42.4433 79.9893 42.3059 80.1267 42.3059 80.1267Z" fill="white"/>
<path id="Vector_25" d="M35.9982 84.1983C35.9982 84.3357 35.8608 84.598 35.8608 84.7229C35.7234 85.1226 35.8608 85.2475 36.2605 85.2475H36.3979V85.3849C36.2605 85.7846 35.9982 85.9095 35.7359 85.7846C35.4736 85.6472 35.3362 85.3849 35.4736 85.1226C35.4736 84.7229 35.611 84.3232 35.9982 84.1983C35.9982 84.0609 35.8733 84.0609 35.9982 84.1983Z" fill="white"/>
<path id="Vector_26" d="M40.5946 87.6089V88.3958C40.5946 88.9204 40.732 88.9204 41.2566 88.7955H41.394V89.0578C41.2566 89.3201 41.1317 89.4575 40.8694 89.4575C40.732 89.4575 40.4697 89.1952 40.4697 89.0578V88.2709C40.4697 88.0086 40.4697 87.7463 40.5946 87.6089C40.5946 87.4715 40.5946 87.4715 40.5946 87.6089Z" fill="white"/>
<path id="Vector_27" d="M47.1647 95.3528C47.1647 95.6151 47.0273 95.7525 47.0273 96.0148C46.8899 96.4145 47.0273 96.4145 47.427 96.4145H47.5644C47.427 96.8142 47.1647 96.9391 46.9024 96.8142C46.6401 96.6768 46.6401 96.4145 46.6401 96.1522C46.7775 95.7525 46.9024 95.4902 47.1647 95.103V95.3528Z" fill="white"/>
<path id="Vector_28" d="M31.1391 90.6308C31.1391 90.7682 31.0017 90.8931 31.0017 91.0305C30.8643 91.4302 30.8643 91.4302 31.264 91.5551H31.3889V91.6925C31.1266 91.9548 30.8643 92.0922 30.7269 91.9548C30.4646 91.8174 30.4646 91.5551 30.5895 91.1679C30.7269 90.9056 30.8518 90.6433 31.1141 90.5059V90.6308H31.1391Z" fill="white"/>
<path id="Vector_29" d="M33.5126 96.4021C33.5126 96.5395 33.3752 96.5395 33.3752 96.6644C33.2503 96.9267 33.3752 97.0641 33.6375 97.189H33.7624C33.6375 97.4513 33.2378 97.5887 33.1004 97.4513C32.8381 97.3139 32.8381 97.0516 32.963 96.6644C33.1004 96.4021 33.2253 96.2647 33.3627 96.1398C33.3627 96.1398 33.5001 96.1398 33.5001 96.0024C33.6375 96.0024 33.6375 96.0024 33.6375 96.1398C33.6375 96.2772 33.6375 96.2772 33.5126 96.4021Z" fill="white"/>
<path id="Vector_30" d="M71.858 92.2052V92.6049C71.858 92.8672 71.858 93.0046 72.2577 93.0046H72.52C72.52 93.0046 72.52 93.142 72.3826 93.142C72.2577 93.4043 71.9829 93.5417 71.858 93.4043C71.7206 93.2669 71.5957 93.0046 71.5957 92.8797C71.5957 92.6174 71.7331 92.3551 71.858 92.0928V92.2052Z" fill="white"/>
<path id="Vector_31" d="M25.6312 96.5396V96.677C25.4938 97.0767 25.4938 97.0767 25.8935 97.2016C25.8935 97.339 25.7561 97.339 25.7561 97.4639C25.4938 97.6013 25.3564 97.4639 25.3564 97.2016C25.3564 97.0642 25.3564 96.9393 25.4938 96.8019C25.3689 96.6645 25.3689 96.5396 25.6312 96.5396C25.6312 96.4022 25.6312 96.4022 25.6312 96.5396Z" fill="white"/>
<path id="Vector_32" d="M22.2087 90.6312C22.0713 90.8935 22.2087 91.0309 22.2087 91.1558C22.2087 91.2932 22.2087 91.2932 22.0713 91.2932V90.3689C22.2087 90.3689 22.0713 90.2315 22.2087 90.1066L22.3461 89.9692H22.7458L22.8832 90.1066C22.8832 90.1066 22.8832 90.244 23.0206 90.244V90.3814C22.6084 90.6312 22.3461 90.4938 22.2087 90.6312Z" fill="white"/>
<path id="Vector_33" d="M30.8766 85.8974C30.7392 86.1597 30.8766 86.1597 31.1389 86.2971C31.014 86.4345 30.8766 86.5594 30.7392 86.4345C30.6143 86.2971 30.6143 86.1722 30.6143 86.0348C30.6143 85.8974 30.7517 85.8974 30.8766 85.8974C30.8766 85.7725 30.8766 85.7725 30.8766 85.8974Z" fill="white"/>
<path id="Vector_34" d="M22.0835 91.418C22.2209 91.2806 22.0835 91.1557 22.2209 91.0183C22.2209 90.8809 22.2209 90.756 22.3583 90.6187V91.5429C22.2209 91.6803 22.3583 91.8052 22.2209 91.9426C22.2209 92.08 22.0835 92.08 22.0835 91.9426C22.0835 91.6803 21.9461 91.5429 22.0835 91.418Z" fill="white"/>
<path id="Vector_35" d="M66.2126 96.0147V96.277C66.2126 96.277 66.35 96.277 66.35 96.4144C66.35 96.4144 66.35 96.5518 66.2126 96.5518C66.0752 96.5518 66.0752 96.5518 66.0752 96.4144C66.0752 96.277 66.0752 96.1396 66.2126 96.0147Z" fill="white"/>
<path id="Vector_36" d="M66.9997 88.7954C66.9997 88.7954 67.1371 88.7954 67.1371 88.9328C67.1371 88.9328 67.1371 89.0702 66.9997 89.0702C66.8623 89.0702 66.8623 89.0702 66.8623 88.9328C66.8748 88.7954 66.8748 88.7954 66.9997 88.7954Z" fill="white"/>
<path id="Vector_37" d="M50.325 84.1987C50.325 84.3361 50.1876 84.461 50.0627 84.461C49.9253 84.461 49.9253 84.461 49.9253 84.3236C50.0627 84.3236 50.1876 84.1987 50.325 84.1987Z" fill="white"/>
<path id="Vector_38" d="M31.1393 90.6311C31.1393 90.6311 31.1393 90.4938 31.002 90.4938C31.002 90.3564 31.1393 90.3564 31.2643 90.2314V90.3688C31.2767 90.3688 31.1393 90.4937 31.1393 90.6311Z" fill="white"/>
<path id="Vector_39" d="M42.3054 80.1267C42.3054 79.9894 42.3054 79.9893 42.168 79.8644C42.168 79.727 42.168 79.7271 42.3054 79.7271C42.4428 79.8644 42.4428 79.9894 42.3054 80.1267Z" fill="white"/>
<path id="Vector_40" d="M66.9995 88.7952C66.8621 88.6578 66.8621 88.5329 66.9995 88.3955V88.7952Z" fill="white"/>
<path id="Vector_41" d="M58.7306 97.064C58.7306 97.2014 58.7306 97.2014 58.7306 97.064C58.7306 97.2014 58.5932 97.2014 58.4683 97.2014C58.4683 97.2014 58.5932 97.064 58.7306 97.064Z" fill="white"/>
<path id="Vector_42" d="M33.6371 96.277C33.5122 96.1396 33.5122 96.277 33.6371 96.277C33.6371 96.1396 33.6371 96.0146 33.7745 96.0146C33.9119 96.0146 33.9119 96.0147 33.9119 96.152C33.7745 96.1396 33.6371 96.1396 33.6371 96.277Z" fill="white"/>
<path id="Vector_43" d="M30.877 85.8972C30.877 85.7723 30.877 85.7723 30.877 85.8972C30.877 85.6349 30.877 85.635 31.0143 85.4976C31.0143 85.635 31.0143 85.7723 30.877 85.8972Z" fill="white"/>
<path id="Vector_44" d="M33.7749 96.0147C33.7749 95.8773 33.7749 95.7524 33.9123 95.7524C33.8998 95.8773 33.7749 96.0147 33.7749 96.0147Z" fill="white"/>
<path id="Vector_45" d="M52.6856 91.9425C52.5482 91.8051 52.6856 91.6802 52.6856 91.6802C52.823 91.8051 52.823 91.9425 52.6856 91.9425Z" fill="white"/>
<path id="Vector_46" d="M25.6309 96.5392C25.4935 96.4018 25.6309 96.4018 25.6309 96.5392C25.6309 96.4018 25.6309 96.2769 25.7683 96.2769C25.7558 96.2769 25.6309 96.4018 25.6309 96.5392Z" fill="white"/>
<path id="Vector_47" d="M56.4953 86.2973C56.4953 86.2973 56.4953 86.1599 56.3579 86.1599C56.3579 86.1599 56.3579 86.0225 56.4953 86.0225V86.2973C56.4953 86.1599 56.4953 86.1599 56.4953 86.2973Z" fill="white"/>
<path id="Vector_48" d="M31.9262 83.2744C31.9262 83.4118 32.0636 83.2744 32.0636 83.4118H31.9262C31.9262 83.3993 31.8013 83.3993 31.9262 83.2744C31.8013 83.2744 31.8013 83.2744 31.9262 83.2744Z" fill="white"/>
<path id="Vector_49" d="M35.9985 84.1988C35.8736 84.0614 35.8736 84.0614 35.9985 84.1988V84.1988Z" fill="white"/>
<path id="Vector_50" d="M71.8586 92.205C71.8586 92.205 71.8586 92.0676 71.7212 92.0676C71.7212 92.0676 71.7212 91.9302 71.8586 91.9302C71.996 91.9302 71.996 91.9302 71.996 92.0676C71.8586 92.0676 71.8586 92.205 71.8586 92.205Z" fill="white"/>
<path id="Vector_51" d="M71.8584 91.9425C71.721 91.8051 71.8584 91.6802 71.8584 91.6802C71.9958 91.8051 71.9958 91.9425 71.8584 91.9425Z" fill="white"/>
<path id="Vector_52" d="M66.2124 96.0143V95.877C66.3498 95.877 66.3498 96.0143 66.2124 96.0143Z" fill="white"/>
<path id="Vector_53" d="M47.165 95.3524V95.215V95.0776C47.3024 95.2275 47.3024 95.3524 47.165 95.3524Z" fill="white"/>
<path id="Vector_54" d="M22.6082 90.2314H22.2085C22.3459 90.1065 22.4708 90.1065 22.6082 90.2314Z" fill="white"/>
<path id="Vector_55" d="M49.9252 84.3232C50.0626 84.4606 50.0626 84.4606 49.9252 84.3232C49.9252 84.4606 49.9252 84.4606 49.7878 84.4606C49.6504 84.4606 49.6504 84.4606 49.6504 84.3232C49.9252 84.4606 49.9252 84.4606 49.9252 84.3232Z" fill="white"/>
<path id="Vector_56" d="M42.1807 97.3261C42.1807 97.0638 42.3056 97.0638 42.1807 97.3261C42.3056 97.2012 42.3056 97.2012 42.1807 97.3261Z" fill="white"/>
<path id="Vector_57" d="M49.8005 84.4609C49.8005 84.5983 49.6631 84.5983 49.6631 84.5983L49.8005 84.4609Z" fill="white"/>
<path id="Vector_58" d="M23.5327 86.2971C23.3953 86.2971 23.3953 86.2971 23.5327 86.2971C23.3953 86.1597 23.3953 86.1597 23.5327 86.1597V86.2971Z" fill="white"/>
<path id="Vector_59" d="M22.0837 90.2314C22.0837 90.3688 22.0837 90.3688 21.9463 90.4938C21.9463 90.3688 21.9463 90.3688 22.0837 90.2314Z" fill="white"/>
<path id="Vector_60" d="M22.7329 90.4934V90.356C22.8703 90.3684 22.7329 90.4934 22.7329 90.4934Z" fill="white"/>
<path id="Vector_61" d="M93.667 74.0812V73.9438C93.7919 73.9438 93.7919 74.0812 93.667 74.0812Z" fill="#A1C0AE"/>
<path id="Vector_62" d="M31.2764 90.2311V90.0938C31.4013 90.2311 31.2764 90.2311 31.2764 90.2311Z" fill="white"/>
<path id="Vector_63" d="M46.9026 22.4576C46.9026 20.4841 46.7652 18.3857 46.7652 16.4122V15.2256V14.8259C46.5029 15.0882 46.3655 15.3505 46.2406 15.7502C46.1157 16.1499 46.1157 16.4122 45.9783 16.7994C45.9783 16.9368 45.8409 17.0617 45.8409 17.1991C45.716 17.4614 45.5786 17.4614 45.3163 17.3365C45.054 17.1991 44.9166 16.9368 44.9166 16.6745C44.7792 16.2748 44.7792 15.8876 44.7792 15.4879C44.7792 15.3505 44.7792 15.0882 44.6418 14.9633C44.5169 15.2256 44.5169 15.6253 44.3795 15.8876C44.2421 16.1499 44.2421 16.4122 43.9798 16.6745C43.8549 16.9368 43.7175 16.9368 43.4552 16.6745C43.0555 16.2748 43.0555 15.8876 42.9306 15.4879V14.8259V14.5636C42.9306 14.4262 42.9306 14.5636 42.7932 14.5636C42.6558 14.701 42.5309 14.9633 42.3935 15.0882C42.1312 15.2256 41.9938 15.2256 41.8689 14.9508C41.7315 14.6885 41.7315 14.4262 41.7315 14.2888V13.2396C41.5941 13.377 41.4692 13.5019 41.3318 13.6393C41.1944 13.7767 40.9321 13.9016 40.8072 13.9016C40.5449 13.7642 40.5449 13.5019 40.5449 13.377C40.5449 12.8524 40.6823 12.4527 40.9446 12.0655C41.082 11.9281 41.082 11.8032 41.2069 11.6658H40.9446C40.5449 11.6658 40.5449 11.5284 40.5449 11.1412C40.5449 11.0038 40.6823 10.7415 40.8072 10.6166C40.9446 10.3543 41.2069 10.092 41.4692 9.82972C41.5941 9.69232 41.5941 9.69232 41.5941 9.43002C41.4692 9.16772 41.5941 8.90542 41.8564 8.64312C42.1187 8.38082 42.5184 8.24342 42.7807 8.11852C43.043 7.98112 43.3053 7.98112 43.4427 7.85622C42.9181 7.33161 43.043 7.33161 43.5801 7.06931C44.5044 6.54471 45.4162 6.54471 46.3405 6.93192C46.7402 7.06931 47.0025 7.19422 47.3897 7.45652C47.652 7.59392 47.7894 7.59392 47.9143 7.45652C48.7012 6.93192 49.4881 6.66962 50.5373 6.66962C50.7996 6.66962 51.1993 6.66962 51.4616 6.80701C51.7239 6.94441 51.9862 7.20671 51.9862 7.46901C51.9862 7.6064 52.1236 7.60641 52.2485 7.73131C52.7731 7.73131 53.2977 7.99361 53.8223 8.25591C54.3469 8.51821 54.4843 8.91791 53.9597 9.44251C54.6217 9.70481 54.7466 10.2294 54.884 10.8914C54.6217 10.754 54.3594 10.6291 54.0971 10.754C54.0971 10.8914 54.222 11.0163 54.3594 11.0163C54.6217 11.416 54.884 11.8032 55.0214 12.2029C55.1588 12.4652 55.1588 12.8649 55.0214 13.1272C54.4968 13.1272 54.3594 12.6026 53.9722 12.6026C53.8348 12.74 53.9722 12.8649 53.9722 12.8649C54.1096 13.3895 54.1096 14.0515 53.8348 14.5761C53.7099 14.8384 53.7099 14.8384 53.4476 14.5761C53.3102 14.4387 53.1853 14.3138 53.1853 14.1764C53.0479 14.039 53.0479 13.7767 52.7856 13.6518C52.7856 13.9141 52.9105 14.3138 52.9105 14.5761C53.0479 15.1007 52.9105 15.6253 52.6482 16.1499C52.5108 16.4122 52.2485 16.4122 52.1236 16.2873C51.9862 16.1499 51.8613 16.025 51.8613 15.7627C51.7239 15.5004 51.7239 15.2381 51.599 15.1007C51.599 14.9633 51.4616 14.8384 51.3367 14.701C51.3367 15.2256 51.4741 15.6253 51.3367 16.1499C51.3367 16.4122 51.1993 16.8119 50.937 17.0742C50.7996 17.3365 50.6747 17.3365 50.5373 17.0742C50.275 16.9368 50.1376 16.6745 50.1376 16.5496C50.0002 16.2873 49.8753 15.8876 49.7379 15.6253C49.6006 15.363 49.6006 15.1007 49.3383 14.9633V17.4614C49.3383 18.2483 49.3382 19.1726 49.4756 19.9595C49.4756 20.7464 49.4756 21.6707 49.6005 22.4576C49.7379 22.7199 49.7379 22.9822 49.8629 23.1196C49.7255 23.1196 49.6005 23.257 49.6005 23.3819C49.6005 24.8308 49.7379 26.4046 49.7379 27.8535C49.7379 27.9909 49.7379 28.1158 50.0002 28.1158C50.2625 28.1158 50.5248 28.1158 50.6622 28.3781C50.7871 28.5155 50.7872 28.5155 50.9245 28.3781C51.3242 28.3781 51.4491 28.3781 51.5865 28.7778C51.5865 28.9152 51.7114 29.0401 51.8488 29.0401C52.1111 29.0401 52.1111 29.3024 51.9737 29.5647C51.9737 29.7021 51.8488 29.827 51.7114 29.827L51.5865 29.9644C50.9245 30.489 50.1376 30.6264 49.3507 30.6264C48.4264 30.489 47.6395 30.6264 46.7277 30.6264C46.4654 30.6264 46.2031 30.6264 45.9408 30.3641C45.8034 30.2267 45.5411 30.1018 45.4162 29.9644C45.2913 29.827 45.1539 29.827 45.1539 29.7021C45.0165 29.4398 45.1539 29.1775 45.4162 29.1775C45.5536 29.1775 45.6785 29.0401 45.6785 28.9152C45.6785 28.7903 45.8034 28.6529 46.0782 28.6529C46.3405 28.6529 46.6028 28.6529 46.7277 28.3906C46.8651 28.2532 46.99 28.2532 47.1274 28.2532C47.3897 28.2532 47.3897 28.2532 47.3897 27.9909V26.4171C47.3897 25.6302 47.3897 24.7059 47.2648 23.919C47.2648 23.6567 47.2648 23.5193 47.0025 23.5193C46.7777 22.9822 46.6403 22.7199 46.9026 22.4576Z" fill="#057954"/>
<path id="Vector_64" d="M31.1394 30.4768H30.8771C30.7397 30.4768 30.7397 30.4768 30.7397 30.3394C31.002 29.6774 31.5266 29.2902 32.1886 29.0279C33.1129 28.5033 34.0248 28.241 35.074 28.1036C37.3098 27.7039 39.4082 27.8413 41.644 28.5033C44.0047 29.2902 46.1156 30.4768 47.9517 32.1755L48.0891 32.3129C48.2265 32.4503 48.2265 32.4503 48.3514 32.3129C48.4888 32.1755 48.6137 32.0506 48.7511 31.9132C50.7246 30.202 52.9604 29.0279 55.446 28.3659C58.069 27.579 60.5671 27.7039 63.0652 28.6282C63.2026 28.6282 63.3275 28.7656 63.4649 28.7656C64.2518 29.0279 64.9138 29.4276 65.4384 30.0771C65.4384 30.2145 65.7007 30.4768 65.5758 30.6017C65.3135 30.7391 65.1761 30.6017 64.9138 30.4643C63.34 29.9397 61.6288 29.6774 60.055 29.8023C58.0815 29.9397 56.1205 30.4643 54.2719 31.3761C52.823 32.0381 51.5115 32.825 50.3374 33.7368C49.9377 33.9991 49.9377 33.9991 50.2 34.3988C50.5997 34.9234 51.1243 35.448 51.5115 35.9726C51.6489 35.7103 51.6489 35.5729 51.7738 35.3106C52.0361 34.9109 52.4358 34.786 52.823 35.0483C53.6099 35.448 53.7473 36.2349 53.2227 36.8844C53.0978 37.0218 52.9604 37.1467 52.823 37.1467C52.4233 37.409 52.4233 37.8087 52.823 38.071C52.9604 38.2084 53.0853 38.071 53.2227 38.071C53.485 37.9337 53.8847 37.8087 54.147 37.9336C54.809 38.071 55.3336 38.5956 55.3336 39.3826V40.0445C55.3336 40.8314 54.5467 41.3561 53.7598 41.2311C53.0978 41.0938 52.5732 40.8315 52.186 40.4442C51.6614 39.9196 50.9994 39.2576 50.6122 38.6081C50.4748 38.4707 50.4748 38.3458 50.3499 38.3458C50.2125 38.4832 49.9502 38.4832 49.9502 38.7455C49.9502 39.2701 49.8128 39.6698 49.4256 39.7947C49.0259 39.9321 48.5013 39.6573 48.239 39.1327C48.1016 38.4707 48.1016 38.2084 48.7636 37.8212C48.8885 37.6838 49.1633 37.5589 49.2882 37.4215C49.5505 37.1592 49.6879 37.1592 49.2882 36.8969C48.8885 36.4972 48.6262 36.11 48.239 35.7103L48.1016 35.5729C47.8393 35.4355 47.8393 35.4355 47.7019 35.7103C47.577 36.11 47.3022 36.2349 47.0399 36.4972C46.9025 36.6346 46.7776 36.7595 46.6402 36.8969C46.3779 37.1592 46.3779 37.1592 46.6402 37.4215C46.9025 37.5589 47.1648 37.8212 47.4271 37.9461C47.5645 38.0835 47.5645 38.2084 47.6894 38.3458V39.1327C47.5645 39.5324 47.0274 39.7947 46.6402 39.7947C46.2405 39.7947 45.9782 39.5324 45.9782 39.1327V38.733C45.9782 38.4707 45.8408 38.3333 45.5785 38.3333C45.4411 38.3333 45.3162 38.4707 45.1788 38.5956C44.7791 39.2576 44.2545 39.7822 43.605 40.3068C43.2178 40.7065 42.6807 40.9688 42.1561 41.0937C41.2318 41.356 40.5823 40.6941 40.4449 39.7822C40.4449 39.3825 40.4449 39.1202 40.5823 38.733C40.8446 37.9461 41.6315 37.5464 42.4184 37.8087C42.5558 37.8087 42.5558 37.8087 42.6807 37.9461C42.943 38.0835 43.0804 37.9461 43.2053 37.6838C43.3302 37.4215 43.3302 37.2841 43.0679 37.1592C42.1436 36.4972 42.1436 35.5854 43.0679 35.0608C43.5925 34.7985 43.8548 34.9234 44.2545 35.3231C44.3919 35.4605 44.3919 35.7228 44.5168 35.9851C45.0414 35.3231 45.566 34.7985 45.9657 34.149C46.1031 34.0116 46.1031 33.8867 45.9657 33.7493C45.8283 33.6119 45.7034 33.6119 45.566 33.487C43.4676 31.9132 41.0944 30.7266 38.4714 30.202C35.9733 29.6774 33.6126 29.6774 31.2519 30.4643C31.4017 30.4768 31.2768 30.4768 31.1394 30.4768Z" fill="#057954"/>
<path id="Vector_65" d="M33.6372 23.245C33.7746 23.5073 34.0368 23.5073 34.2992 23.5073C34.8238 23.5073 35.0861 23.245 35.4858 22.9827C35.6231 22.8453 35.6231 22.7204 35.7481 22.583C36.2727 23.5073 37.0596 23.1076 37.4593 22.3207C37.5967 22.3207 37.5967 22.3207 37.5967 22.4581C37.859 22.7204 38.1213 22.7204 38.3836 22.4581C38.5209 22.3207 38.5209 22.1958 38.6459 22.0584C38.7832 22.1958 38.9082 22.3207 39.1705 22.4581C39.5701 22.5955 39.8325 22.4581 39.8325 22.0584V21.6587C39.5702 20.7344 39.4328 19.8226 39.1705 18.8983C39.1705 18.7609 39.0455 18.4986 39.1705 18.3737C39.1705 18.2363 39.3078 18.2363 39.4328 18.2363C39.5702 18.2363 39.5702 18.3737 39.5702 18.3737C39.7075 18.7734 39.9698 19.1606 40.0948 19.4229C40.2322 19.5603 40.2321 19.6852 39.9574 19.6852C39.82 19.6852 39.82 19.8226 39.82 19.9475C40.0823 20.6095 40.0823 21.3964 40.0823 22.0459V22.4456C39.9449 22.9702 39.4203 23.2325 38.8957 22.9702C38.7583 22.8328 38.6334 22.9702 38.496 23.1076C38.0963 23.6322 37.834 23.6322 37.3094 23.245C37.172 23.3824 37.0471 23.5073 36.9097 23.6447C36.5225 24.0444 36.1228 24.0444 35.7231 23.6447L35.5857 23.5073C35.4483 23.6447 35.4483 23.6447 35.3234 23.7696C34.7988 24.2942 34.1368 24.2942 33.4873 23.907C33.3624 23.907 33.3624 23.7696 33.225 23.7696C33.1001 23.6322 32.9627 23.6322 32.8378 23.7696C32.5755 24.0319 32.3132 24.2942 31.9135 24.4316C31.7761 24.4316 31.7761 24.569 31.7761 24.6939C31.6387 25.8805 30.8518 26.53 29.94 27.0546C29.8026 27.0546 29.6777 27.192 29.5403 27.192C28.8783 27.3294 28.4911 27.0546 28.3537 26.4051V26.1428C28.2163 26.1428 28.2163 26.2802 28.0914 26.4051C27.8291 26.8048 27.4294 27.0671 27.0422 27.3294C26.3927 27.7291 25.8556 27.4668 25.5933 26.6674H25.7307C26.3927 26.9297 26.9173 26.8048 27.3045 26.2677C27.6917 25.7306 28.2288 25.2185 28.7534 24.6939C28.8908 24.5565 29.0157 24.4316 29.0157 24.2942C29.1531 23.8945 29.0157 23.7696 28.7534 23.7696C28.2288 23.6322 27.7042 23.5073 27.1796 23.3699C26.9173 23.2325 26.655 23.1076 26.3927 22.8453C26.2553 22.7079 26.1304 22.583 26.2553 22.3207C26.3927 22.1833 26.5176 22.1833 26.7799 22.1833C27.0422 22.1833 27.1796 22.3207 27.3045 22.583C27.4294 22.8453 27.7042 22.9827 27.9665 22.9827C28.2288 22.9827 28.4911 23.1201 28.7534 23.1201C29.278 23.2575 29.5403 23.5198 29.5403 24.0444C29.5403 24.4441 29.4154 24.8313 29.1531 25.231L28.8908 25.4933C28.7659 25.6307 28.6285 25.893 28.7659 26.1553C28.7659 26.4176 28.8908 26.555 29.1656 26.555C29.6902 26.6924 30.0898 26.555 30.4771 26.2927C30.8768 26.0304 31.264 25.6307 31.5263 25.1061C31.264 25.1061 31.0017 25.2435 30.7394 25.2435C30.3397 25.2435 30.0898 24.9812 30.0898 24.5815C30.0898 24.1818 30.2148 23.9195 30.6144 23.7946C30.8767 23.6572 31.1391 23.7946 31.4014 23.932C31.6637 24.0694 31.926 24.0694 32.1883 24.0694C32.3256 24.0694 32.4506 23.932 32.4506 23.932C32.588 23.7946 32.7129 23.6697 32.588 23.5323C32.588 23.3949 32.3256 23.3949 32.1883 23.3949H31.5263C31.264 23.3949 31.1266 23.2575 31.264 22.9952C31.264 22.7329 31.4014 22.5955 31.6637 22.4706C32.3257 21.946 33.1126 21.8086 34.0244 22.0709C34.2867 22.0709 34.549 22.2083 34.549 22.4706C34.549 22.7329 34.4116 22.8703 34.1493 23.1326C34.0369 22.9827 33.7746 23.1201 33.6372 23.245Z" fill="#26231E"/>
<path id="Vector_66" d="M67.7865 22.8579C67.9239 22.7205 68.0488 22.5956 68.1862 22.4582C68.3111 22.3208 68.3111 22.1959 68.0488 22.1959C66.9996 22.1959 65.9504 22.1959 64.9012 22.7205C64.7638 22.8579 64.5015 22.8579 64.3766 23.1202C65.1635 23.7822 65.6881 24.5691 65.9504 25.4809C66.0878 25.7432 66.2127 26.0055 66.475 26.2678C66.6124 26.4052 66.7373 26.5301 66.8747 26.5301C67.2744 26.6675 67.6616 26.3927 67.799 26.0055C67.799 25.3435 67.799 24.694 67.9364 24.032C67.9364 23.7697 67.9364 23.5074 68.3236 23.37V24.2943V26.655C68.3236 27.1796 68.5859 27.442 69.1105 27.317C69.3728 27.317 69.4977 27.1796 69.6351 26.9173C69.7725 26.3927 70.422 25.9931 71.084 25.8681V25.0812V23.6323V23.4949C71.084 23.3576 71.084 23.0952 71.2214 23.0952C71.3588 23.0952 71.4837 23.2326 71.4837 23.3575C71.6211 23.6199 71.746 24.0195 71.746 24.4068C71.3463 24.5441 71.3463 24.5441 71.3463 24.8065V25.7307C71.4837 25.8681 71.6086 25.7307 71.746 25.7307C72.0083 25.7307 72.2706 25.8681 72.408 26.1304C72.6703 26.5301 72.5454 26.9173 72.1457 27.0547C71.746 27.317 71.3588 27.1921 71.0965 26.7924C70.9591 26.655 71.0965 26.5301 70.8342 26.3927H70.3096C70.0473 26.5301 69.9099 26.655 69.785 26.9173C69.9099 27.0547 70.0473 26.9173 70.1722 26.9173C70.6968 26.9173 70.8342 27.1797 70.9591 27.7043C70.9591 28.1039 70.6968 28.4912 70.2971 28.6286C69.8974 28.7659 69.5102 28.4912 69.3728 28.1039C69.2354 27.9666 69.2354 27.8416 68.9731 27.8416H68.8357C68.0488 27.8416 67.7865 27.7043 67.6491 26.9173C67.5242 26.9173 67.3868 27.0547 67.2619 27.0547C66.5999 27.317 66.0753 27.1921 65.6881 26.5301C65.5507 26.2678 65.4258 26.0055 65.2884 25.7432C65.2884 25.6058 65.2884 25.4809 65.1635 25.4809C65.1635 25.6183 65.0261 25.7432 65.0261 25.7432C64.8887 26.0055 64.6264 26.2678 64.3641 26.4052C63.8395 26.6675 63.3149 26.5426 63.0526 26.0055C62.9277 25.8681 62.9277 25.6058 62.7903 25.4809C62.7903 25.2186 62.6529 25.2186 62.3906 25.0812C62.2532 25.0812 62.1283 25.2186 61.9909 25.3435C61.8535 25.4809 61.7286 25.7432 61.7286 25.8681C61.5912 26.1304 61.4663 26.2678 61.204 26.3927C60.8043 26.5301 60.4171 26.3927 60.2797 25.9931C60.1548 25.5934 60.1548 25.2061 60.1548 24.8065C60.2797 24.9438 60.2797 25.0688 60.2797 25.0688C60.2797 25.3311 60.4171 25.4684 60.542 25.5934C60.8043 25.993 61.0666 25.993 61.4663 25.7307C61.6037 25.5934 61.6037 25.5934 61.7286 25.4684C61.8535 25.2061 62.1158 24.9438 62.3906 24.6815C62.528 24.5441 62.6529 24.4192 62.7903 24.4192C63.0526 24.4192 63.3149 24.4192 63.3149 24.6815C63.3149 24.8189 63.4398 25.0812 63.4398 25.2061C63.4398 25.4684 63.7021 25.6058 63.9644 25.6058C64.2267 25.6058 64.489 25.6058 64.6264 25.4684C64.7638 25.3311 64.7638 25.2061 64.8887 25.0688C64.8887 24.8065 64.8887 24.5441 64.7638 24.2818C64.6264 23.8822 64.3641 23.6199 64.1018 23.3575C63.8395 22.9579 63.8395 22.6956 64.2392 22.3083C64.3641 22.171 64.6264 22.046 64.8887 21.9086C65.9379 21.509 67.1245 21.2467 68.1737 21.384H68.2986C68.6983 21.384 68.6983 21.6463 68.5609 22.046C68.5609 22.1834 68.4235 22.1834 68.2986 22.3083C68.3111 22.7205 68.0488 22.8579 67.7865 22.8579Z" fill="#26231E"/>
<path id="Vector_67" d="M53.6099 23.3823C53.4725 23.6446 53.4725 23.9069 53.3476 24.1692V24.4315C53.3476 24.6938 53.485 24.8312 53.7473 24.6938C54.0096 24.6938 54.2719 24.5564 54.3968 24.2941C55.0588 23.6321 55.7083 23.1075 56.6326 22.8452C56.4952 22.5829 56.4952 22.5829 55.8457 22.5829C55.8457 22.3206 55.9707 22.0583 56.233 21.9209C57.0199 21.3963 58.2064 21.3963 58.9934 22.1832C59.1307 22.3206 59.1307 22.4455 58.9934 22.5829C58.856 22.7203 58.7311 22.8452 58.5937 22.8452C58.3314 22.9826 58.0691 23.1075 57.8068 23.1075C58.2064 23.5072 58.856 23.5072 59.2557 23.3698C59.518 23.2324 59.6553 22.9701 59.6553 22.5829C59.6553 22.0583 59.518 21.3963 59.518 20.8717V20.0848C59.518 19.8225 59.518 19.5602 59.7803 19.2979C60.0426 19.6975 60.1799 20.2221 60.4422 20.6094C59.9176 20.7468 60.0426 21.134 60.0426 21.3963V22.8452C60.0426 22.9826 60.0426 23.1075 59.9052 23.2449C59.6429 23.7695 59.1183 24.0318 58.5937 24.0318C58.0691 24.1692 57.6694 23.8944 57.4071 23.5072C57.1448 23.2449 57.1448 23.2449 56.8825 23.2449C55.9582 23.5072 55.0463 24.0318 54.3843 24.6938C54.122 24.9561 53.7348 25.0935 53.3352 25.0935C52.9355 25.0935 52.8105 24.9561 52.8105 24.5689C52.9479 24.1692 53.2102 23.6446 53.6099 23.3823C53.7348 23.2449 53.6099 23.2449 53.6099 23.3823Z" fill="#26231E"/>
<path id="Vector_68" d="M46.9027 22.4581V22.9827C46.9027 23.1201 46.7653 23.245 46.6404 23.245C46.1158 23.245 45.5912 23.1076 45.0666 22.8453C44.8043 22.7079 44.542 22.583 44.4046 22.3207C44.2672 22.1833 44.1423 22.0584 44.0049 21.921C43.7426 21.6587 43.6052 21.6587 43.3429 21.921C43.2055 22.0584 43.0806 22.1833 42.9432 22.4456C42.8058 22.7079 42.8058 22.8453 42.6809 23.1076C42.5435 23.6322 42.2812 23.7696 41.7566 23.7696C41.3569 23.7696 41.0946 23.5073 40.9697 23.1076V22.8453C40.9697 22.583 40.8448 22.3207 41.1071 22.0584C41.2445 22.3207 41.3694 22.7204 41.5068 22.9827C41.7691 23.3824 42.1688 23.245 42.4311 22.8453C42.5684 22.583 42.6934 22.3207 42.8308 22.0584C42.9681 21.6587 43.2304 21.3964 43.4927 21.1341C43.8924 20.7344 44.1547 20.7344 44.417 21.2715C44.8167 21.7961 45.3413 22.1958 45.9909 22.3207C46.1158 22.4581 46.5155 22.4581 46.9027 22.4581Z" fill="#26241F"/>
<path id="Vector_69" d="M49.5377 23.12C49.4003 23.12 49.2754 23.12 49.2754 22.9826V22.458C50.3246 22.3206 51.3738 21.9334 52.423 21.5337C52.5604 21.5337 52.5604 21.3963 52.6853 21.2714C52.6853 21.134 52.8227 21.134 52.9476 21.134C53.0725 21.134 53.0725 21.2714 53.0725 21.3963C53.2099 21.796 53.4722 21.9209 53.7345 21.9209C53.9968 21.9209 54.1342 21.7835 54.1342 21.5212V21.2589C54.1342 21.1215 54.2716 20.9966 54.3965 20.9966C54.5339 20.9966 54.6588 21.134 54.6588 21.2589V21.6586C54.5214 22.1832 54.2591 22.4455 53.7345 22.5829C53.3473 22.7203 52.9476 22.5829 52.8102 22.1832C52.8102 22.1832 52.8102 22.0458 52.6853 22.0458C51.761 22.458 50.7118 22.9826 49.5377 23.12Z" fill="#26241F"/>
<path id="Vector_70" d="M22.3462 26.0049C22.6085 26.1423 22.7459 26.2672 22.8708 26.4046C23.0082 26.542 23.2705 26.6669 23.5328 26.6669C23.7951 26.6669 23.9325 26.5295 23.9325 26.2672V25.7426C23.9325 25.4803 23.9325 25.0806 24.0699 24.8183C24.2073 24.4186 24.4696 24.2937 24.8568 24.556C25.2565 24.8183 25.6437 24.8183 25.906 24.556C26.1683 24.4186 26.1683 24.2937 26.0434 24.0314C25.906 23.894 25.906 23.6317 26.0434 23.5068C26.1808 23.5068 26.3057 23.5068 26.3057 23.6442C26.568 23.9065 26.7054 24.5685 26.568 24.8308C26.4431 25.2305 26.1808 25.3554 25.7811 25.3554C25.3814 25.3554 25.1191 25.3554 24.8568 25.218C24.5945 25.0806 24.4571 25.0806 24.3322 25.4803C24.1948 25.7426 24.1948 26.1423 24.3322 26.4046C24.3322 26.8043 24.3322 27.0666 24.0699 27.3289C23.6702 27.5912 23.4079 27.4663 23.0207 27.1915C22.6085 26.9292 22.4711 26.6669 22.3462 26.0049Z" fill="#28241F"/>
<path id="Vector_71" d="M61.8783 19.835C62.0157 20.0973 62.0157 20.2347 62.0157 20.497C62.1531 20.7593 62.1531 21.0216 62.278 21.2839C62.4154 21.5462 62.4154 21.6836 62.0157 21.6836H61.8783V24.1817C61.8783 24.5814 61.616 24.8437 61.4786 25.106V24.7063V20.6344C61.3537 20.3596 61.4786 20.0973 61.8783 19.835Z" fill="#2B2822"/>
<path id="Vector_72" d="M73.9566 29.8146V29.1526C73.8192 27.7037 73.8192 26.3922 73.6943 24.9433C73.6943 24.5436 73.8317 24.2813 74.094 24.019C74.2314 24.5436 74.4937 24.9433 74.6186 25.4679C74.2189 25.4679 74.2189 25.4679 74.3563 25.8676C74.3563 26.6545 74.4937 27.4414 74.4937 28.2283C74.4937 28.628 74.3563 29.1526 74.2314 29.5398C74.094 29.6897 74.094 29.6897 73.9566 29.8146C74.094 29.8146 74.094 29.8146 73.9566 29.8146Z" fill="#26241F"/>
<path id="Vector_73" d="M42.0436 22.1957C41.9062 21.796 41.9062 21.4088 41.7813 21.1465C41.6439 20.3596 41.3816 19.6976 41.1193 18.9107C40.9819 18.511 40.9819 18.2487 40.9819 17.7241C41.2442 17.9864 41.5065 18.2487 41.6439 18.511V18.6484C41.519 18.9107 41.6439 19.0481 41.7813 19.3104C41.9187 19.835 42.0436 20.2347 42.181 20.7593C42.181 21.2839 42.181 21.8085 42.0436 22.1957Z" fill="#292520"/>
<path id="Vector_74" d="M31.0145 21.0216C30.7522 20.7593 30.6148 20.497 30.7522 20.0973C30.7522 19.9599 30.8896 19.835 31.0145 19.835C31.1519 19.835 31.2768 19.9724 31.2768 20.0973C31.4142 20.2347 31.2768 20.497 31.4142 20.6219C31.5516 20.7593 31.5516 20.8842 31.5516 21.0216H31.4142C31.1519 20.8842 31.1519 21.0216 31.0145 21.159C30.8771 21.4213 30.6148 21.6836 30.4899 21.9459C30.3525 22.0833 30.2276 22.2082 29.9653 22.2082C30.4899 21.9334 30.7522 21.5462 31.0145 21.0216Z" fill="#2D2723"/>
<path id="Vector_75" d="M50.9745 24.0317C51.1119 24.0317 51.1119 24.0317 50.9745 24.0317C51.4991 23.632 51.4991 23.632 51.7614 24.1691C51.6365 24.3065 51.4991 24.4314 51.3617 24.5688C51.0994 24.4314 51.0994 24.1691 50.962 24.1691C50.8246 24.1691 50.6997 24.4314 50.5623 24.4314C50.4374 24.294 50.3 24.1691 50.1626 24.0317V23.8943C50.3 23.7569 50.4249 23.4946 50.5623 23.4946C50.8496 23.7694 50.8496 24.0317 50.9745 24.0317Z" fill="#2C2722"/>
<path id="Vector_76" d="M37.3223 19.96C37.4597 20.2223 37.4597 20.3597 37.3223 20.622C37.1849 20.8843 37.1849 21.0217 36.7977 21.0217C36.6603 21.0217 36.6603 21.0217 36.5354 21.159C36.398 21.2964 36.2731 21.4213 36.0108 21.2964C35.8734 21.2964 35.7485 21.0341 35.7485 20.7718V20.6344C35.7485 20.6344 35.7485 20.4971 35.8859 20.4971C36.0233 20.4971 35.8859 20.6344 35.8859 20.6344C35.8859 20.7718 35.8859 20.8967 36.0233 20.8967C36.1607 20.8967 36.1607 20.7594 36.2856 20.7594C36.423 20.622 36.423 20.4971 36.423 20.3597C36.5604 20.3597 36.5604 20.4971 36.5604 20.622C36.6978 20.7594 36.6978 20.7594 36.8227 20.622C37.1849 20.2223 37.1849 20.0974 37.3223 19.96Z" fill="#2F2A26"/>
<path id="Vector_77" d="M62.8032 23.6448C62.6658 23.6448 62.6658 23.5074 62.5409 23.5074C62.4035 23.37 62.2786 23.2451 62.4035 23.1077C62.5409 22.9703 62.4035 22.8454 62.2661 22.708C62.1287 22.5706 62.1287 22.4457 62.2661 22.3083L62.4035 22.1709H62.5409C62.6783 22.1709 62.8032 22.4332 62.9406 22.5706C63.078 22.708 62.9406 22.708 62.9406 22.8329C62.8032 22.9703 62.8032 23.0952 62.9406 23.0952C63.078 23.2326 63.078 23.3575 62.9406 23.4949C62.9281 23.5074 62.9281 23.6448 62.8032 23.6448Z" fill="#2C2722"/>
<path id="Vector_78" d="M22.6084 23.7696C22.7458 23.6322 22.7458 23.3699 22.8707 23.245H23.0081C23.1455 23.245 23.2704 23.3824 23.4078 23.3824C23.5452 23.3824 23.5452 23.245 23.6701 23.1201C23.6701 22.9827 23.795 22.9827 23.9324 23.1201C24.0573 23.1201 24.0573 23.2575 24.1947 23.2575C24.3196 23.2575 24.3196 23.3949 24.3196 23.5198C24.3196 23.6447 24.1947 23.7821 24.1947 23.7821C24.0573 23.7821 23.9324 23.6447 23.6701 23.6447C23.5327 23.7821 23.5327 23.907 23.4078 24.0444C22.8707 24.0319 22.7333 23.907 22.6084 23.7696Z" fill="#2C2925"/>
<path id="Vector_79" d="M42.9681 19.5726C42.8307 19.4352 42.7058 19.3103 42.5684 19.3103V19.1729C42.9681 18.7732 42.8307 18.6483 43.3553 19.1729C43.2179 19.3103 43.093 19.4352 43.093 19.5726C43.093 19.71 43.2304 19.8349 43.3553 19.8349V19.9723C43.2179 20.1097 43.2179 20.1097 43.093 20.2346L42.9556 20.372C42.5684 20.0972 42.5684 20.0972 42.9681 19.5726Z" fill="#2C2925"/>
<path id="Vector_80" d="M54.7846 18.7856C54.6472 18.923 54.5223 19.1853 54.5223 19.3102C54.5223 19.4476 54.6596 19.4476 54.7846 19.4476C54.922 19.585 54.922 19.8473 54.7846 19.8473C54.6472 19.9847 54.3849 19.9847 54.26 19.8473C54.1226 19.7099 54.1226 19.585 54.1226 19.4476C54.135 19.1729 54.3973 18.9105 54.7846 18.7856Z" fill="#2D2A25"/>
<path id="Vector_81" d="M35.6113 25.4807C36.1359 24.9561 36.6605 24.5564 37.4474 24.6938C36.9228 25.0935 36.2608 25.3558 35.6113 25.4807Z" fill="#2F2925"/>
<path id="Vector_82" d="M63.8521 21.4089C64.514 21.1466 65.1636 21.0092 65.9505 20.8843C65.5508 21.284 64.639 21.5463 63.8521 21.4089Z" fill="#332C27"/>
<path id="Vector_83" d="M69.3603 24.831C69.4977 24.6936 69.6226 24.6936 69.76 24.5687C69.76 24.4313 69.6226 24.5687 69.6226 24.5687C69.3603 24.5687 69.2229 24.4313 69.4977 24.169C69.6226 24.0316 69.8974 23.9067 70.1472 23.9067C70.2846 23.9067 70.2846 24.0441 70.2846 24.0441C70.2846 24.1815 70.2846 24.4438 70.1472 24.5687C69.8849 24.6936 69.76 24.831 69.3603 24.831Z" fill="#2C2925"/>
<path id="Vector_84" d="M57.4194 19.3101C56.8948 19.7098 56.2328 19.9721 55.5833 20.097C55.4459 20.097 55.321 20.2344 55.1836 20.097C55.1836 19.9596 55.321 19.9596 55.4459 19.8347C56.2328 19.5724 56.7574 19.3101 57.4194 19.3101C57.4194 19.1727 57.4194 19.1727 57.4194 19.3101Z" fill="#322C28"/>
<path id="Vector_85" d="M58.4688 20.3594C57.9442 20.7591 57.2822 20.884 56.7576 21.1463H56.6202C56.4828 21.1463 56.3579 21.1463 56.3579 21.0089C56.3579 20.8715 56.4953 20.8715 56.4953 20.8715C57.1573 20.6092 57.6819 20.3469 58.3314 20.2095C58.3314 20.222 58.4688 20.222 58.4688 20.3594Z" fill="#302B26"/>
<path id="Vector_86" d="M54.259 23.2446C54.3964 23.382 54.5213 23.5069 54.6587 23.6443C54.5213 23.7817 54.3964 23.9066 54.1341 24.1689C53.9967 24.0315 53.8718 23.9066 53.7344 23.6443C53.8718 23.5069 53.9967 23.382 54.259 23.2446Z" fill="#2C2822"/>
<path id="Vector_87" d="M25.4936 22.1958V22.7204C25.4936 22.8453 25.3562 22.9827 25.2313 22.8578C25.0939 22.8578 25.0939 22.8578 24.969 22.9952C24.8316 23.1326 24.8316 23.1326 24.7067 23.1326C24.5818 23.1326 24.5693 22.9952 24.5693 22.8703V22.608C24.8316 22.8703 24.8316 22.8703 24.969 22.4706C25.0939 22.4706 25.0939 22.7329 25.2313 22.608C25.3687 22.4581 25.3687 22.1958 25.4936 22.1958Z" fill="#3F3B37"/>
<path id="Vector_88" d="M24.5822 27.9788C24.5822 27.9788 24.4448 27.9788 24.4448 28.1162C24.4448 28.2536 24.3074 28.3785 24.3074 28.5159C23.6454 28.3785 23.6454 28.2536 24.0451 27.729C24.17 27.729 24.3074 27.9913 24.5697 27.8664V27.9788H24.5822Z" fill="#2F2C27"/>
<path id="Vector_89" d="M72.5207 27.7163C72.5207 27.8537 72.3833 27.9786 72.3833 28.116C72.3833 28.2534 72.2459 28.3783 72.5207 28.5157C72.6581 28.5157 72.6581 28.6531 72.5207 28.778C72.5207 28.9154 72.3833 28.9154 72.2584 28.9154C72.121 28.9154 71.9961 28.9154 71.9961 28.778V28.3783C72.121 28.1035 72.2584 27.8412 72.5207 27.7163Z" fill="#332E29"/>
<path id="Vector_90" d="M24.5817 27.9785C24.5817 27.9785 24.5817 27.8411 24.4443 27.8411C24.4443 27.7037 24.5817 27.5788 24.7066 27.4414C24.8315 27.4414 25.1063 27.5788 25.2312 27.7037V27.8411C24.9689 28.2408 24.9689 28.2408 24.5817 27.9785Z" fill="#2E2B25"/>
<path id="Vector_91" d="M57.1446 24.169C57.1446 24.831 57.1446 24.831 57.5443 24.6936V24.831C57.4069 25.0933 57.282 25.0933 57.1446 25.0933C57.0072 25.0933 56.8823 24.831 56.8823 24.5687C56.8823 24.4313 56.8823 24.3064 57.0197 24.169C57.0197 24.2939 57.0197 24.169 57.1446 24.169C57.0197 24.169 57.0197 24.169 57.1446 24.169C57.1446 24.0316 57.1446 24.0316 57.1446 24.169Z" fill="#3E3935"/>
<path id="Vector_92" d="M32.9879 25.481C33.1253 25.6184 33.1253 25.6184 33.3876 25.6184V25.7557C33.2502 26.0181 33.1253 26.1554 32.9879 26.0181C32.8505 26.0181 32.7256 25.7557 32.7256 25.4934C32.7256 25.3561 32.7256 25.2311 32.863 25.0938C33.1128 25.2187 32.9879 25.3561 32.9879 25.481Z" fill="#3A3531"/>
<path id="Vector_93" d="M33.9 20.2224C33.9 20.2224 34.0374 20.3598 34.1623 20.3598C34.2872 20.3598 34.2997 20.3598 34.2997 20.4972C34.1623 20.6346 34.0374 20.7595 33.9 20.7595C33.7626 20.6221 33.6377 20.4972 33.6377 20.3598C33.6377 20.2224 33.6377 20.0975 33.7751 19.9601C34.0374 19.8352 33.7751 20.0975 33.9 20.2224Z" fill="#302D29"/>
<path id="Vector_94" d="M28.3915 21.5464C28.3915 21.6838 28.5289 21.6838 28.5289 21.6838C28.6663 21.5464 28.6663 21.6838 28.6663 21.8212C28.5289 21.9586 28.404 21.9586 28.2666 21.8212C28.3915 21.6713 28.2541 21.6713 28.3915 21.5464Z" fill="#4D413C"/>
<path id="Vector_95" d="M40.9947 22.1957C40.8573 22.3331 40.8573 22.458 40.8573 22.5954V22.9951C40.7324 22.7328 40.8573 22.3331 40.7324 22.0708C40.9947 22.0708 40.9947 22.0708 40.9947 22.1957Z" fill="#B7AAA9"/>
<path id="Vector_96" d="M32.988 25.4804C32.8506 25.343 32.988 25.2181 32.8506 25.0807C32.8506 24.9433 32.988 24.9433 32.988 24.8184C33.1254 24.8184 33.1254 24.9558 33.1254 24.9558C33.1129 25.0932 32.988 25.3555 32.988 25.4804Z" fill="#5B524F"/>
<path id="Vector_97" d="M33.8996 20.222C33.7622 20.222 33.7622 20.0846 33.7622 19.9597V19.6974C33.7622 19.56 33.7622 19.56 33.8996 19.4351V20.222Z" fill="#5B524E"/>
<path id="Vector_98" d="M28.3912 21.5464C28.3912 21.5464 28.3912 21.6838 28.2538 21.6838C28.1289 21.5464 28.1289 21.4215 28.2538 21.1592C28.3912 21.409 28.3912 21.5464 28.3912 21.5464Z" fill="#6A625F"/>
<path id="Vector_99" d="M42.8306 14.3142C42.8306 14.1768 42.8306 14.1768 42.968 14.1768V14.7014C42.8306 14.5765 42.968 14.4515 42.8306 14.3142Z" fill="#B6DBC4"/>
<path id="Vector_100" d="M58.4684 20.3598C58.4684 20.2224 58.3311 20.3597 58.3311 20.2224C58.3311 20.2224 58.4684 20.2224 58.4684 20.085H58.6058C58.5934 20.2224 58.4684 20.3598 58.4684 20.3598Z" fill="#9C8582"/>
<path id="Vector_101" d="M69.3604 24.8311C69.4978 24.8311 69.4978 24.8311 69.3604 24.8311C69.3604 24.9685 69.223 24.9684 69.0981 24.9684C69.2355 24.8311 69.3604 24.8311 69.3604 24.8311Z" fill="#726864"/>
<path id="Vector_102" d="M33.113 24.9564C33.113 24.9564 33.113 24.819 32.9756 24.819C32.9756 24.6816 32.9756 24.6816 33.113 24.6816V24.819V24.9564Z" fill="#C4B7B4"/>
<path id="Vector_103" d="M57.1447 24.1693C57.1447 24.0319 57.1447 24.0319 57.0073 24.0319C57.0073 23.8945 57.0073 23.8945 57.1447 23.8945V24.0319V24.1693Z" fill="#ADA5A3"/>
<path id="Vector_104" d="M53.6099 23.382C53.6099 23.2446 53.6099 23.2446 53.6099 23.382V23.2446C53.7348 23.2446 53.7348 23.2446 53.6099 23.382Z" fill="#8F8280"/>
<path id="Vector_105" d="M34.2995 20.3596C34.2995 20.2222 34.1621 20.2222 34.1621 20.2222C34.1621 20.2222 34.2995 20.0848 34.4244 20.2222L34.2995 20.3596Z" fill="#7D6663"/>
<path id="Vector_106" d="M67.7868 22.8579V22.9953H67.6494C67.6619 22.9828 67.6619 22.8579 67.7868 22.8579Z" fill="#574C48"/>
<path id="Vector_107" d="M54.7842 18.6489C54.7842 18.5239 54.9216 18.5239 54.7842 18.6489C54.9216 18.6489 54.9216 18.6489 54.7842 18.6489Z" fill="#9D9592"/>
<path id="Vector_108" d="M57.4194 19.3101C57.4194 19.1727 57.4194 19.1727 57.4194 19.3101C57.4194 19.1727 57.5443 19.0478 57.4194 19.3101C57.5443 19.3101 57.5443 19.1727 57.4194 19.3101Z" fill="#C4B7B5"/>
<path id="Vector_109" d="M72.5205 27.7168C72.6463 27.5784 72.6463 27.7168 72.5205 27.7168V27.7168Z" fill="#8E7572"/>
<path id="Vector_110" d="M67.6616 22.9824C67.6616 23.1198 67.6616 23.1198 67.6616 22.9824C67.5242 22.9824 67.5242 22.9824 67.6616 22.9824Z" fill="#6D7876"/>
<path id="Vector_111" d="M48.4762 39.008C48.6136 39.2703 48.8759 39.5326 49.2631 39.5326C49.7877 39.67 50.1874 39.3952 50.1874 38.7457V38.4834C50.1874 38.346 50.1874 38.2211 50.3248 38.2211C50.8494 37.8214 50.8494 37.8214 51.1117 38.3585C51.5114 39.0205 52.036 39.67 52.6855 40.1946C53.0852 40.5943 53.6098 40.8566 54.1344 40.9815C54.9213 41.1189 55.4459 40.7192 55.5833 39.9323V39.1454C55.4459 38.2211 54.659 37.8339 53.8721 37.9588C53.7347 37.9588 53.6098 38.0962 53.4724 38.0962C53.2101 38.2335 53.2101 38.2335 52.9478 37.9588C52.9478 37.9588 52.8104 37.8214 52.8104 37.6965C52.5481 37.2968 52.5481 37.2968 52.9478 37.0345C53.0852 36.8971 53.2101 36.8971 53.3475 36.7722C53.6098 36.5099 53.7472 36.1102 53.6098 35.723C53.4724 35.3233 53.2101 35.061 52.6855 34.9361C52.4232 34.9361 52.1609 35.0734 52.0235 35.3357C51.8986 35.598 51.7612 35.8604 51.6363 36.1227C50.9743 35.3358 50.4497 34.6738 49.8002 34.0242C49.8002 33.8868 49.9376 33.8869 49.9376 33.8869C52.036 32.313 54.4092 31.0015 57.0322 30.3395C58.4811 29.9398 60.0549 29.8149 61.6287 29.8149C62.9402 29.9523 64.2517 30.2146 65.5757 30.6018C65.0511 31.651 64.5265 32.8376 64.1268 33.8869C60.3172 42.1556 56.5076 50.5617 52.698 58.8429C52.698 58.9803 52.698 58.9803 52.5731 59.1052C52.4357 59.2426 52.4357 59.3675 52.5731 59.6298C52.8354 60.4167 53.36 61.0787 53.8846 61.7282C55.4584 63.5643 57.5693 64.7509 59.7926 65.6752C61.3664 66.3372 63.0776 66.5995 64.7888 66.7244C67.1495 66.9867 69.3853 66.587 71.4837 65.6752C73.1949 64.8883 74.7687 63.8391 76.2176 62.5276C77.0045 61.7407 77.7914 60.8164 78.316 59.7672C78.4534 59.5049 78.4534 59.3675 78.316 59.2426C78.0537 58.5806 77.7914 57.9311 77.5291 57.2691C73.8569 48.7256 70.1722 40.1946 66.5 31.651C66.3626 31.5136 66.3626 31.3887 66.3626 31.1264C66.3626 30.9891 66.3626 30.989 66.5 30.989C67.0246 31.3887 67.5492 31.776 68.0738 32.0383C70.4345 33.4872 73.07 34.5364 75.8179 35.061C76.7422 35.1984 77.5291 35.4607 78.4409 35.5856C78.7032 35.5856 78.8281 35.723 78.8281 35.9853C79.4901 38.7457 80.277 41.3687 80.9265 44.1291C83.4246 53.4595 85.9227 62.7774 88.4084 72.2327V72.3701C88.5458 72.5075 88.4084 72.6324 88.2835 72.6324C87.6215 72.7698 86.9719 73.0321 86.31 73.157C84.7361 73.4193 83.1623 73.5567 81.576 73.5567C79.6025 73.4193 77.6415 73.0321 75.7929 72.5075C74.0817 71.9829 72.383 71.3209 70.5344 70.6714C68.8232 70.1468 67.2494 69.6222 65.4133 69.3599C63.7021 69.0976 61.866 68.9602 60.0299 69.0976C55.958 69.235 52.1484 70.4091 48.4762 72.5075C48.4762 72.5075 48.3388 72.5075 48.3388 72.6449C48.2139 72.6449 48.2139 72.6449 48.2139 72.5075V72.1078V39.4077C48.3513 39.2703 48.2139 39.008 48.4762 39.008Z" fill="#F2C343"/>
<path id="Vector_112" d="M31.1391 30.4769C31.926 30.2146 32.7129 29.9523 33.4998 29.8149C36.6474 29.2903 39.6701 29.9523 42.4305 31.3887C43.742 32.0507 45.0535 32.8376 46.2401 33.7494C46.365 33.7494 46.365 33.8868 46.5024 34.0117C45.8404 34.6737 45.3158 35.4606 44.6663 36.2475C44.5289 35.9852 44.5289 35.7229 44.404 35.5855C44.1417 35.0609 43.742 34.9235 43.2174 35.3232C42.5554 35.7229 42.5554 36.5098 43.08 37.0344C43.2174 37.1718 43.3423 37.2967 43.6046 37.4341C43.742 37.4341 43.742 37.5715 43.742 37.6964C43.6046 37.9587 43.6046 38.0961 43.3423 38.3584C43.2049 38.4958 43.2049 38.4958 43.08 38.3584C42.9426 38.221 42.6803 38.221 42.5554 38.0961C41.8934 37.9587 41.1065 38.3584 40.9816 39.0204C40.8442 39.4201 40.8442 39.8073 40.9816 40.0696C41.119 40.7316 41.6436 41.1188 42.4305 41.1188C43.0925 40.9814 43.4797 40.7191 44.0043 40.3319C44.6663 39.8073 45.1909 39.1453 45.5781 38.4958C45.5781 38.3584 45.7155 38.3584 45.7155 38.2335L45.8404 38.0961C45.9778 38.2335 46.1027 38.2335 46.2401 38.3584C46.3775 38.4958 46.3775 38.6207 46.3775 38.7581C46.3775 39.0204 46.3775 39.4201 46.6398 39.545C46.9021 39.6824 47.3018 39.6824 47.5641 39.545C47.8264 39.4076 47.9513 39.2827 48.0887 39.1453V39.6699V68.6979V72.2452V72.6449C47.8264 72.6449 47.8264 72.5075 47.5641 72.3826C45.3283 71.0711 43.0925 70.0219 40.6069 69.3599C38.3711 68.8353 36.1353 68.6979 33.912 68.8353C30.3647 69.0976 26.9548 70.0219 23.6698 71.196C23.2701 71.3334 22.8829 71.4583 22.6206 71.5957C21.6963 71.9954 20.7845 72.2577 19.8602 72.3826C17.7618 72.7823 15.5259 72.9072 13.4275 72.7823C11.8537 72.7823 10.1425 72.52 8.56873 72.2577C8.16903 72.1203 8.16903 72.2577 8.30643 71.7331C10.0176 65.6877 11.5914 59.7797 13.3026 53.7342C14.8764 48.2134 16.3253 42.5677 17.8991 37.0594C18.0365 36.5348 18.0365 36.0102 18.1614 35.6105C18.1614 35.2108 18.2988 35.2108 18.5611 35.2108C21.5838 34.8111 24.3443 34.1616 27.1047 32.975C28.2913 32.4504 29.3405 31.9258 30.3897 31.2638C30.5146 31.1264 30.652 31.1264 30.7769 31.0015C30.7769 31.1389 30.7769 31.2638 30.652 31.4012C29.2031 34.4239 27.8916 37.4466 26.4427 40.5942C23.6823 46.7645 20.7969 52.8099 18.0365 58.9803C18.0365 59.1177 18.0365 59.1177 17.8991 59.2426C17.7618 59.38 17.8991 59.6423 17.8991 59.7672C18.2988 60.6915 18.8234 61.4784 19.473 62.1279C20.9219 63.7017 22.758 64.7509 24.8564 65.5378C26.5676 66.1998 28.4037 66.587 30.2398 66.7244C33.0002 66.9867 35.4983 66.4621 37.859 65.1506C39.6951 64.2263 41.2814 62.9148 42.5929 61.341C42.9926 60.8164 43.3798 60.2918 43.6421 59.6298C43.7795 59.4924 43.7795 59.3675 43.9044 59.2301C43.767 59.2301 43.6421 59.2301 43.6421 59.0927C43.2549 58.0435 42.8552 57.1192 42.4555 56.07C38.9082 47.6639 35.3609 39.3951 31.6887 30.989C31.4014 30.8641 31.2765 30.7392 31.1391 30.4769Z" fill="#F2C343"/>
<path id="Vector_113" d="M18.0122 59.105C18.2745 58.3181 18.7991 57.5312 19.0614 56.6069C22.9959 48.0634 26.8055 39.6698 30.7525 31.1263C30.7525 30.9889 30.8899 30.864 30.8899 30.7266C31.0273 30.864 31.0273 30.9889 31.0273 31.1263C34.9618 40.4567 38.9088 49.6497 42.8434 58.9676C42.8434 58.9676 42.8434 59.105 42.9808 59.105C42.8434 59.3673 42.7185 59.3673 42.4562 59.2424C36.673 59.105 30.9024 59.2424 25.1193 59.105H18.3994C18.4119 59.2424 18.1371 59.2424 18.0122 59.105Z" fill="#F2C343"/>
<path id="Vector_114" d="M52.9478 59.1052C53.7347 57.2691 54.659 55.5579 55.4459 53.7218C58.2063 47.6764 61.0916 41.5061 63.852 35.4607C64.514 34.1492 65.0386 32.8377 65.6881 31.3888C65.6881 31.2514 65.6881 31.1265 65.9504 31.1265C66.0753 31.3888 66.0753 31.5262 66.2127 31.7885C70.1472 40.9815 74.0942 50.0496 78.0287 59.2426V59.38C77.8913 59.6423 77.7664 59.5174 77.629 59.5174C71.721 59.38 65.9379 59.5174 60.0299 59.38H53.5973C53.3475 59.2426 53.0851 59.3675 52.9478 59.1052Z" fill="#F2C343"/>
<path id="Vector_115" d="M13.1527 40.057C12.8904 40.9813 12.6281 41.8931 12.3658 42.68C9.60542 52.6599 6.84501 62.6399 4.08461 72.6323V72.7697C4.08461 73.032 4.08461 73.1694 4.34691 73.2943C4.74661 73.4317 5.27121 73.5566 5.65841 73.5566C6.44532 73.5566 7.36962 73.5566 8.15652 73.4192C8.29391 73.4192 8.41882 73.4192 8.41882 73.2818C8.41882 73.0195 8.55621 73.1444 8.68112 73.1444C9.34312 73.1444 10.13 73.1444 10.7795 73.007C10.9169 73.007 11.0418 73.007 11.0418 72.8696C11.0418 72.7322 11.1792 72.8696 11.3041 72.8696C12.6156 73.007 13.8022 73.007 15.1137 73.007C17.2121 73.007 19.1856 72.7447 21.1591 72.345C21.4214 72.345 21.5588 72.2076 21.6837 72.2076C24.0445 71.2833 26.2803 70.4964 28.7784 69.8469C31.1391 69.3223 33.3749 68.9226 35.873 69.06C39.9449 69.1974 43.6171 70.2466 47.1644 72.4699C47.4267 72.6073 47.689 72.7322 47.9513 72.9945C48.2136 73.1319 48.351 73.1319 48.4759 72.9945C49.7874 72.2076 51.2363 71.5456 52.6852 70.8961C54.7836 70.1092 56.882 69.5846 59.1178 69.4472C60.9539 69.3098 62.9274 69.3098 64.7635 69.5846C66.9993 69.8469 69.2352 70.5089 71.3336 71.2958C73.0448 71.9578 74.7435 72.4824 76.4547 73.007C78.8154 73.669 81.1886 73.9313 83.5493 73.7939C84.2113 73.7939 84.7359 73.6565 85.3854 73.5316C85.5228 73.5316 85.6477 73.3942 85.6477 73.669C85.6477 73.8064 85.7851 73.8064 85.91 73.8064C86.572 73.8064 87.0966 73.9438 87.7461 73.8064C87.8835 73.8064 88.0084 73.669 88.0084 74.0687C88.0084 74.2061 88.1458 74.2061 88.1458 74.2061C89.4573 74.2061 90.6439 74.3435 91.9554 74.0687H92.0928C92.4925 73.9313 92.4925 73.8064 92.4925 73.4067C91.9679 71.5706 91.5682 69.7345 91.0436 68.0233C89.2075 61.0661 87.3714 54.0963 85.5228 47.1391C84.9982 44.9033 84.3362 42.8049 83.8116 40.5691C83.8116 40.4317 83.6742 40.3068 83.8116 40.1694H84.8608C84.9982 40.1694 84.9982 40.3068 84.9982 40.4317C85.1231 41.0937 85.3854 41.7432 85.5228 42.4052C87.3589 49.3624 89.0701 56.3321 90.9062 63.2894C91.5682 66.0498 92.3551 68.8102 93.0046 71.5706C93.142 72.0952 93.4043 72.6198 93.4043 73.1444V74.1936C93.2669 74.5933 93.142 74.8556 92.7423 75.1179C92.48 75.2553 92.3426 75.3802 92.0803 75.2553C90.1068 75.2553 88.0084 75.1179 86.0349 75.1179C83.4119 75.1179 80.9138 74.9805 78.2908 74.9805C75.2681 74.9805 72.1205 74.8431 69.0978 74.8431C67.6489 74.8431 66.075 74.8431 64.6261 74.7057C61.6034 74.7057 58.4558 74.5683 55.4331 74.5683C53.9842 74.5683 52.5478 74.5683 51.0989 74.4309C50.8366 74.4309 50.6992 74.4309 50.5743 74.6932C50.0497 75.4801 49.3877 76.0047 48.4759 76.1421C47.4267 76.4044 46.6398 76.0047 45.8529 75.4801C45.5906 75.2178 45.1909 74.9555 45.066 74.5558C44.9286 74.2935 44.6663 74.2935 44.404 74.2935H39.2829H33.8995H28.1164C24.1819 74.2935 20.3722 74.2935 16.4252 74.4309C12.2159 74.4309 8.14403 74.4309 3.94721 74.5683C3.68491 74.5683 3.54752 74.5683 3.28522 74.4309C2.62322 74.1686 2.36092 73.644 2.49831 72.982C2.62322 72.1951 2.89801 71.4082 3.16031 70.6213C5.92072 60.6414 8.68112 50.6615 11.4415 40.5441V40.2818C11.4415 40.1444 11.5664 40.0195 11.7038 40.0195C12.3658 40.057 12.753 40.057 13.1527 40.057Z" fill="#F2C343"/>
<path id="Vector_116" d="M52.9479 59.105C53.0853 59.2424 53.2102 59.105 53.3476 59.105H58.6061C63.9896 59.105 69.373 59.105 74.7564 59.2424H77.6417H78.0414H78.4411C78.5785 59.2424 78.7034 59.2424 78.8408 59.3798C78.8408 59.5172 78.7034 59.6421 78.7034 59.7795C78.1788 60.9661 77.3919 61.8779 76.4676 62.6648C74.3692 64.6383 71.996 65.9498 69.2481 66.6118C67.6743 67.0115 66.2254 67.0115 64.6515 66.8741C62.8154 66.7367 61.1042 66.3495 59.393 65.5626C57.6818 64.9006 56.108 63.9888 54.7965 62.8022C53.8722 61.8779 53.0853 60.9661 52.5607 59.7795C52.5607 59.6421 52.5607 59.6421 52.4358 59.5172C52.2984 59.2549 52.2984 59.2549 52.6981 59.2549C52.6856 59.105 52.8105 59.105 52.9479 59.105Z" fill="#057954"/>
<path id="Vector_117" d="M18.0122 59.105H20.5103H23.533C29.0538 59.105 34.4373 59.105 39.9456 59.2424H42.8309H43.2306H43.6303C43.7677 59.3798 43.8926 59.2424 44.03 59.3798C44.03 59.5172 43.8926 59.6421 43.8926 59.7795C43.2306 61.091 42.3188 62.1402 41.1322 63.1894C39.1587 64.9006 36.9354 66.0747 34.2999 66.6118C32.851 67.0115 31.2772 67.0115 29.7034 66.8741C27.9922 66.7367 26.2934 66.3495 24.7071 65.6875C22.7336 64.9006 20.8975 63.8514 19.4486 62.4025C18.6617 61.6156 18.1371 60.8287 17.7374 59.7795C17.7374 59.6421 17.6 59.6421 17.6 59.5172C17.4626 59.2549 17.6 59.2549 17.8623 59.2549C17.7499 59.105 17.8748 59.105 18.0122 59.105Z" fill="#057954"/>
<path id="Vector_118" d="M88.8083 73.8189C89.3329 73.6815 89.7326 73.5566 90.2572 73.4192C90.6569 73.2818 90.6569 73.1569 90.5195 72.7572C88.6834 65.9249 86.8473 58.9676 84.9987 52.1353C83.8121 47.6637 82.638 43.2046 81.4514 38.8704C81.4514 38.733 81.4514 38.6081 81.314 38.4707C81.7137 38.4707 82.2383 38.4707 82.6255 38.6081C82.7629 38.6081 82.7629 38.6081 82.7629 38.7455C82.9003 39.4075 83.0252 40.057 83.2875 40.5816C85.261 48.2008 87.3594 55.9449 89.3329 63.5642C90.1198 66.8492 91.0441 69.9968 91.831 73.2818V73.4192C91.831 73.6815 91.831 73.6815 91.5687 73.6815C91.169 73.8189 90.6444 73.8189 90.2572 73.8189C89.9824 73.9438 89.3329 73.9438 88.8083 73.8189C88.6709 73.8189 88.6709 73.8189 88.8083 73.8189Z" fill="#F2C343"/>
<path id="Vector_119" d="M7.37015 73.2945C6.44585 73.4319 5.53404 73.4319 4.60974 73.1571C4.21005 73.0197 4.21005 73.0197 4.34744 72.7574C5.53404 68.2858 6.84555 63.8266 8.03215 59.355C9.86825 52.9224 11.5795 46.4898 13.4156 40.1821C13.553 39.6575 13.6779 39.1329 13.8153 38.7332C13.8153 38.5958 13.9527 38.4709 14.0776 38.4709C14.4773 38.4709 14.8645 38.4709 15.2642 38.3335C15.2642 38.4709 15.1268 38.5958 15.1268 38.7332C12.2415 48.9754 9.48105 59.2176 6.59574 69.5973C6.33344 70.5216 6.07113 71.4334 5.80883 72.3577C5.67144 72.7574 5.80883 72.8823 6.20853 73.0197C6.72064 73.0322 7.10785 73.1571 7.37015 73.2945C7.50754 73.1571 7.37015 73.1571 7.37015 73.2945Z" fill="#F2C343"/>
<path id="Vector_120" d="M9.46837 72.8946C8.54407 72.8946 7.63226 72.8946 6.70796 72.6323C6.57056 72.6323 6.44566 72.6323 6.44566 72.4949C6.30826 72.4949 6.18336 72.3575 6.30826 72.0952C6.57056 71.4332 6.70796 70.6463 6.97026 69.8594C9.73067 60.0044 12.3537 50.1618 15.1141 40.3068C15.3764 39.2576 15.6387 38.071 15.901 37.0218C16.0384 36.6221 16.0384 36.6221 16.4256 36.6221C16.6879 36.6221 17.0876 36.4847 17.4748 36.6221C17.3374 37.0218 17.2125 37.409 17.0751 37.8087C13.9275 49.1001 10.9048 60.2667 7.74467 71.5581V71.6955C7.60728 71.9578 7.74467 72.0952 8.00698 72.2201C8.66897 72.3575 9.19357 72.4824 9.84308 72.6198C9.73067 73.032 9.60576 72.8946 9.46837 72.8946Z" fill="#F2C343"/>
<path id="Vector_121" d="M86.0479 73.5568C86.8348 73.2945 87.6217 73.1571 88.546 72.8948C88.6834 72.8948 88.8083 72.7574 88.9457 72.6325V72.3702C88.546 70.7963 88.1588 69.3475 87.7591 67.7736C85.7856 60.4167 83.8245 53.1972 81.851 45.8403C81.0641 43.0799 80.2772 40.1946 79.6152 37.4342V37.1719C80.0149 37.1719 80.4021 37.1719 80.8018 37.3093C80.9392 37.3093 80.9392 37.4467 80.9392 37.5716C80.9392 37.709 80.9392 37.9713 81.0641 38.0962C81.0641 38.3585 81.0641 38.4959 81.3264 38.7582C81.4638 38.7582 81.4638 38.8956 81.4638 39.0205C82.9127 44.4039 84.3491 49.7873 85.6606 55.1707C87.2345 61.0787 88.8083 66.8618 90.2572 72.7699C90.3946 73.2945 90.3946 73.2945 89.8575 73.4318C88.8083 73.8315 87.884 73.8315 86.8348 73.8315C86.4351 73.5568 86.3102 73.5568 86.0479 73.5568Z" fill="#F2C343"/>
<path id="Vector_122" d="M48.4761 39.0079L48.3387 39.1452V39.4075V71.9828V72.2451C48.3387 72.3825 48.3387 72.3825 48.4761 72.3825C48.4761 72.3825 48.3387 72.5199 48.3387 72.3825V71.9828V45.4405V35.7228V35.1982C49.0007 35.7228 49.3879 36.2474 49.9125 36.9094C49.5128 37.1717 49.1256 37.434 48.7259 37.8337C48.4636 37.9711 48.4636 38.096 48.3262 38.3583C48.3512 38.6206 48.4761 38.8829 48.4761 39.0079Z" fill="#F2C343"/>
<path id="Vector_123" d="M47.9518 38.2209C47.5521 37.8212 47.0275 37.434 46.5029 37.0343C47.0275 36.5097 47.4272 35.9851 47.9518 35.4604V38.2209Z" fill="#F2C343"/>
<path id="Vector_124" d="M9.46826 72.8947C9.60566 72.7573 9.73056 72.8947 9.73056 72.7573C9.86796 72.7573 9.99286 72.7573 10.1303 72.8947C9.99286 72.8947 9.73056 73.0321 9.46826 72.8947Z" fill="#BA8516"/>
<path id="Vector_125" d="M7.36963 73.2945C7.50702 73.1571 7.50703 73.1571 7.63193 73.2945H7.36963Z" fill="#CFB400"/>
<path id="Vector_126" d="M88.8082 73.8188C88.6708 73.9562 88.6708 73.9562 88.5459 73.8188H88.8082Z" fill="#C2A011"/>
<path id="Vector_127" d="M86.0475 73.5567C86.0475 73.6941 85.9102 73.6941 85.9102 73.5567C85.9102 73.4193 86.0475 73.4193 86.0475 73.5567Z" fill="#AE8619"/>
<path id="Vector_128" d="M66.0879 30.8641C66.2128 30.7392 66.2128 30.8641 66.0879 30.8641C66.2128 31.0015 66.2128 31.0015 66.0879 30.8641Z" fill="#907E23"/>
<path id="Vector_129" d="M66.0879 30.8643C66.2128 30.8643 66.2128 30.8643 66.0879 30.8643H66.3502L66.2253 31.0017C66.0879 31.0017 66.0879 31.0017 66.0879 30.8643Z" fill="#D4A403"/>
<path id="Vector_130" d="M42.7056 92.7295C42.5682 93.1292 42.3059 93.3915 41.9187 93.3915C41.519 93.3915 41.2567 93.2541 41.1318 92.8669C40.9944 92.7295 40.9944 92.6046 41.2691 92.6046C41.7813 92.4672 42.3059 92.6046 42.7056 92.7295Z" fill="#057954"/>
<path id="Vector_131" d="M75.5431 90.3688C75.1434 90.5062 74.7562 90.6311 74.3565 90.5062C74.2191 90.5062 74.0942 90.5062 74.0942 90.3688C74.0942 90.2314 74.2191 90.1065 74.3565 90.1065C74.6188 89.7068 75.2808 89.8442 75.5431 90.3688Z" fill="#057954"/>
<path id="Vector_132" d="M54.1345 92.0677C53.6099 92.0677 53.6099 91.9303 53.6099 91.5431C53.6099 91.0185 53.8722 90.4939 54.3968 90.0942C54.6591 89.8319 54.7965 89.8319 55.0588 90.0942C55.3211 90.3565 55.5834 90.6188 55.7208 91.0185V91.4182C55.5834 91.6805 55.4585 91.8179 55.1962 91.8179C54.784 91.9428 54.3968 92.0677 54.1345 92.0677Z" fill="#057954"/>
<path id="Vector_133" d="M53.9967 80.9135C53.8593 80.9135 53.7344 80.7761 53.7344 80.6512C53.7344 80.3889 53.8718 80.2515 53.9967 80.2515C54.1341 80.2515 54.259 80.3889 54.259 80.6512C54.3964 80.7761 54.1341 80.9135 53.9967 80.9135Z" fill="#057954"/>
<path id="Vector_134" d="M54.6588 80.776C54.7962 80.776 54.9211 80.9134 54.7962 80.9134C54.7962 81.0508 54.6588 81.0508 54.5339 81.0508C54.3965 81.0508 54.3965 81.0508 54.3965 80.9134C54.5214 80.776 54.5214 80.6511 54.6588 80.776Z" fill="#057954"/>
<path id="Vector_135" d="M33.1126 22.7201C32.9753 22.7201 32.8504 22.7201 32.9753 22.5827C32.9753 22.4453 33.1126 22.4453 33.2376 22.4453C33.3625 22.4453 33.4999 22.4453 33.3625 22.5827C33.375 22.7201 33.25 22.7201 33.1126 22.7201Z" fill="#EEF5F6"/>
<path id="Vector_136" d="M30.7525 24.4313C30.7525 24.5687 30.6151 24.5687 30.6151 24.5687C30.4902 24.5687 30.4902 24.5687 30.4902 24.4313C30.4902 24.2939 30.6151 24.2939 30.7525 24.2939V24.4313Z" fill="#E4EEEF"/>
<path id="Vector_137" d="M72.1209 26.2673C72.1209 26.4047 71.9835 26.4047 71.9835 26.4047C71.8586 26.4047 71.7212 26.4047 71.7212 26.2673C71.7212 26.1299 71.7212 26.1299 71.8586 26.1299C72.1209 26.1424 72.1209 26.1424 72.1209 26.2673Z" fill="#E8EDEE"/>
<path id="Vector_138" d="M70.6839 27.7165C70.6839 27.8539 70.5465 27.8539 70.5465 27.8539C70.4216 27.8539 70.2842 27.8539 70.2842 27.7165C70.2842 27.5791 70.4216 27.5791 70.4216 27.5791C70.5465 27.5791 70.6839 27.5791 70.6839 27.7165Z" fill="#DDE5E5"/>
<path id="Vector_139" d="M31.0146 20.3594C31.152 20.3594 31.277 20.4968 31.277 20.6217C31.277 20.6217 31.2769 20.7591 31.1396 20.6217C31.0146 20.6217 31.0146 20.4968 31.0146 20.3594Z" fill="#D9DBDC"/>
</g>
</g>
</g>
</g>
</g>
</g>
<defs>
<clipPath id="clip0_828_5118">
<rect width="1280" height="9382" fill="white" transform="translate(-651.112 -6056.09)"/>
</clipPath>
</defs>
</svg>
