<svg width="150" height="95" viewBox="0 0 150 95" fill="none" xmlns="http://www.w3.org/2000/svg">
<rect width="150" height="95" fill="#1E1E1E"/>
<g id="MacBook Air - 17" clip-path="url(#clip0_828_5118)">
<rect width="1280" height="9382" transform="translate(-230.181 -6058.78)" fill="white"/>
<g id="Frame 1000011215">
<g id="Frame 1000010959">
<g id="Frame 47279">
<g id="Group">
<path id="Vector" d="M6.982 56.1837L5.63211 54.8105L4.28223 56.1837L5.63211 57.5336L6.982 56.1837Z" fill="#0F2837"/>
<path id="Vector_2" d="M3.79336 56.1837L2.46675 54.8105L1.14014 56.1837L2.46675 57.5336L3.79336 56.1837Z" fill="#0F2837"/>
<path id="Vector_3" d="M29.4882 56.0677L28.1616 54.7178L26.835 56.0677L28.1616 57.4408L29.4882 56.0677Z" fill="#0F2837"/>
<g id="Group_2">
<path id="Vector_4" d="M30.7445 60.9085C30.1627 59.768 29.3248 59.1862 28.1844 59.1862C27.7189 59.1862 27.2767 59.3026 26.881 59.512C26.4621 59.7215 26.1363 60.0008 25.8337 60.3732C25.5312 60.7455 25.2984 61.1877 25.1355 61.6765C24.9726 62.1885 24.8795 62.7005 24.8795 63.2824C24.8795 64.2832 25.1355 65.0512 25.6941 65.6098C26.2294 66.1684 26.9741 66.4476 27.9284 66.4476C28.3706 66.4476 28.7662 66.4011 29.1386 66.2615C29.511 66.1218 29.8601 65.9356 30.1627 65.7262V67.239C30.1627 67.5183 29.6972 67.751 28.743 67.8906C27.7887 68.0303 11.5435 68.1234 9.65835 68.1234H9.14632C8.42483 68.1234 7.93608 67.9837 7.61025 67.7277C7.28441 67.4717 7.14477 67.0062 7.16804 66.4011L7.26114 59.0698L5.56214 59.3724V60.6757C3.8166 61.0248 2.46671 61.6067 1.48921 62.3747C0.511702 63.1427 0.0229492 64.097 0.0229492 65.2141C0.0229492 65.6796 0.116044 66.0985 0.302236 66.4476C0.488427 66.82 0.744439 67.1226 1.047 67.3786C1.37283 67.6113 1.74522 67.8208 2.16415 67.9372C2.60635 68.0768 3.04856 68.1234 3.53731 68.1234C4.37517 68.1234 5.07339 67.9605 5.67851 67.5881C5.91125 69.2172 7.09822 70.0318 9.14632 70.0318H9.65835C10.4264 70.0318 25.9268 70.0086 26.5087 69.9853C27.0905 69.962 27.6025 69.9387 28.0447 69.8689C28.4869 69.8224 28.8826 69.7293 29.2084 69.6595C29.5343 69.5896 29.8368 69.4733 30.1161 69.3336C30.6747 69.0776 31.0704 68.7052 31.3031 68.2165C31.5358 67.7277 31.6522 67.0062 31.6522 66.0287C31.6057 63.7711 31.3264 62.0489 30.7445 60.9085ZM29.2084 64.609C28.8593 64.7021 28.487 64.7487 28.1146 64.7487C27.5094 64.7487 27.044 64.609 26.7181 64.3297C26.3923 64.0737 26.2294 63.6548 26.2294 63.1195C26.2294 62.5144 26.4156 62.0023 26.7647 61.6067C27.1138 61.211 27.5793 60.9783 28.0913 60.9783C28.6731 60.9783 29.1153 61.211 29.4179 61.723C29.7437 62.2351 29.9299 63.0264 30.0463 64.1668C29.8601 64.353 29.5808 64.4926 29.2084 64.609ZM3.79332 66.1916C3.49076 66.1916 3.1882 66.1684 2.90891 66.1218C2.62963 66.0753 2.37361 65.9822 2.16415 65.8891C1.93141 65.7727 1.76849 65.6563 1.65212 65.4469C1.51248 65.284 1.46593 65.0512 1.46593 64.7952C1.46593 64.4694 1.5823 64.1901 1.81504 63.9108C2.04778 63.6548 2.35034 63.3988 2.72272 63.1893C3.09511 62.9798 3.56058 62.8169 4.02606 62.654C4.51481 62.5144 5.02684 62.4213 5.56214 62.3514L5.60869 65.8193C5.07339 66.0753 4.46827 66.1916 3.79332 66.1916Z" fill="#0F2837"/>
<path id="Vector_5" d="M57.1379 58.3714L55.8113 57.0215L54.4614 58.3714L55.8113 59.7445L57.1379 58.3714Z" fill="#0F2837"/>
<path id="Vector_6" d="M60.3028 58.3714L58.9529 57.0215L57.603 58.3714L58.9529 59.7445L60.3028 58.3714Z" fill="#0F2837"/>
<path id="Vector_7" d="M82.3897 58.0223L81.0398 56.6724L79.6899 58.0223L81.0398 59.3954L82.3897 58.0223Z" fill="#0F2837"/>
<path id="Vector_8" d="M82.5991 62.1884L83.9722 60.8152L82.5991 59.4653L81.2725 60.8152L82.5991 62.1884Z" fill="#0F2837"/>
<path id="Vector_9" d="M80.8069 60.8152L79.457 59.4653L78.1304 60.8152L79.457 62.1884L80.8069 60.8152Z" fill="#0F2837"/>
<path id="Vector_10" d="M101.241 56.3464L101.288 66.936C101.288 67.1455 101.218 67.3084 101.055 67.4713C100.892 67.6342 100.706 67.7273 100.473 67.8204C100.241 67.9135 99.9612 67.96 99.6587 68.0066C99.3561 68.0531 84.2281 68.0531 83.9255 68.0531C82.2265 68.0531 81.3421 67.6109 81.3421 66.7265C81.3421 66.6101 81.3886 66.2843 81.4352 65.7956C81.4817 65.3068 81.5748 64.7482 81.6214 64.1198L80.1551 63.9569C80.1086 64.1431 80.1086 64.3759 80.062 64.6086C80.0155 64.8413 80.0155 65.0973 79.9457 65.3301C79.8991 65.5628 79.8526 65.8188 79.806 66.0516C79.7595 66.2843 79.7362 66.4938 79.6896 66.6567C79.5733 67.1687 79.294 67.5178 78.8518 67.7506C78.4096 67.9833 62.8859 68.0764 61.9316 68.0764C61.4894 68.0764 61.0938 68.0764 60.6981 68.0531C60.3025 68.0299 59.9534 68.0066 59.6043 68.0066C60.349 67.2851 60.7214 66.424 60.7214 65.3534C60.7214 64.8181 60.6283 64.3293 60.4654 63.8406C60.2792 63.3751 60.0232 62.9561 59.7439 62.6303C59.4413 62.2812 59.069 62.0019 58.65 61.7924C58.2311 61.583 57.8122 61.4899 57.3467 61.4899C56.8812 61.4899 56.439 61.583 56.0433 61.7924C55.6244 62.0019 55.2753 62.2579 54.9495 62.6303C54.6236 62.9794 54.3909 63.3751 54.228 63.8406C54.0418 64.306 53.972 64.8181 53.972 65.3534C53.972 66.424 54.3443 67.3084 55.0891 68.0066C54.74 68.0531 54.3676 68.0531 53.972 68.0531C53.5763 68.0764 38.3552 68.0764 37.9362 68.0764C37.2147 68.0764 36.726 67.9368 36.4234 67.6808C36.0976 67.4247 35.9579 66.9593 35.9579 66.3541L36.051 56.0903L34.3521 56.3929L34.4451 67.0058C34.4917 69.0074 35.6554 70.0314 37.9828 70.0314C38.7974 70.0314 54.4142 69.9849 55.2055 69.8452C55.9735 69.7056 56.7183 69.5194 57.3932 69.2866C58.0914 69.5194 58.8129 69.7289 59.581 69.8452C60.3723 69.9849 61.1636 70.0314 61.9549 70.0314C62.8626 70.0314 78.4794 69.8918 79.1311 69.659C79.7827 69.4263 80.2482 69.0539 80.5508 68.5884C81.1094 69.5427 82.2498 70.0314 83.9255 70.0314C84.4608 70.0314 99.775 69.9849 100.264 69.8685C100.753 69.7521 101.195 69.5892 101.567 69.3332C101.94 69.1005 102.265 68.7514 102.498 68.3324C102.731 67.9135 102.847 67.4015 102.847 66.8196L102.94 56.0903L101.241 56.3464ZM57.3932 67.5178C56.0666 67.0756 55.3917 66.3774 55.3917 65.3766C55.3917 65.0973 55.4382 64.8181 55.5313 64.562C55.6244 64.3293 55.7641 64.0966 55.9502 63.9104C56.1364 63.7242 56.3459 63.5613 56.5786 63.4682C56.8114 63.3751 57.0907 63.3285 57.37 63.3285C57.6492 63.3285 57.9053 63.3751 58.138 63.4682C58.3707 63.5613 58.5802 63.7009 58.7664 63.9104C58.9526 64.0966 59.0922 64.3293 59.2086 64.562C59.3017 64.7948 59.3482 65.0741 59.3482 65.3766C59.3715 66.3774 58.6966 67.0756 57.3932 67.5178Z" fill="#0F2837"/>
<path id="Vector_11" d="M105.78 69.985L105.664 56.3465L107.386 56.0439L107.269 69.985H105.78Z" fill="#0F2837"/>
<path id="Vector_12" d="M121.14 66.7503C121.14 67.7744 120.791 68.6122 120.14 69.2406C119.488 69.869 118.557 70.1716 117.417 70.1716C116.206 70.1716 115.252 69.869 114.624 69.2639C113.995 68.6588 113.669 67.7976 113.669 66.6805C113.669 65.959 113.763 65.3073 113.972 64.6789C114.181 64.0505 114.437 63.492 114.787 63.0265C115.136 62.561 115.508 62.1886 115.974 61.9093C116.416 61.63 116.905 61.4904 117.417 61.4904C117.952 61.4904 118.417 61.63 118.883 61.9093C119.325 62.1886 119.721 62.561 120.07 63.0265C120.419 63.492 120.675 64.0505 120.861 64.7022C121.047 65.3306 121.14 66.0055 121.14 66.7503ZM115.811 59.7449L114.484 58.3717L115.811 56.9985L117.137 58.3717L115.811 59.7449ZM119.674 66.9365C119.674 66.4245 119.628 65.959 119.511 65.5401C119.395 65.0979 119.255 64.7488 119.046 64.4229C118.836 64.1204 118.604 63.8876 118.324 63.7014C118.045 63.5385 117.742 63.4454 117.417 63.4454C117.114 63.4454 116.811 63.5152 116.532 63.6782C116.253 63.8178 115.997 64.0273 115.811 64.3066C115.601 64.5626 115.462 64.8651 115.322 65.2142C115.206 65.5633 115.136 65.9357 115.136 66.3314C115.136 66.9598 115.322 67.4253 115.718 67.7511C116.113 68.0769 116.672 68.2398 117.417 68.2398C117.719 68.2398 117.998 68.1933 118.278 68.1467C118.557 68.1002 118.79 68.0071 118.999 67.8675C119.209 67.7511 119.348 67.6114 119.488 67.4485C119.604 67.2623 119.674 67.0994 119.674 66.9365ZM118.976 59.7449L117.649 58.3717L118.976 56.9985L120.303 58.3717L118.976 59.7449Z" fill="#0F2837"/>
<path id="Vector_13" d="M120.535 72.6154C121.326 72.3361 122.048 71.987 122.7 71.6146C123.351 71.2422 123.933 70.8465 124.422 70.4276C124.911 70.0087 125.283 69.5898 125.539 69.1941C125.818 68.7752 125.958 68.3795 125.958 68.0071C125.958 67.7744 125.911 67.4718 125.818 67.1227C125.725 66.7736 125.586 66.378 125.399 65.9358C125.213 65.4936 125.004 65.0746 124.771 64.6091C124.538 64.1437 124.259 63.7015 123.98 63.2825L125.539 62.4214C126.144 63.236 126.633 64.1204 126.959 65.0979C127.308 66.0754 127.494 67.0063 127.494 67.8442C127.494 69.1941 126.959 70.4276 125.935 71.5913C124.911 72.7085 123.444 73.6394 121.536 74.3376L120.535 72.6154Z" fill="#0F2837"/>
<path id="Vector_14" d="M130.473 69.985L130.357 56.3465L132.056 56.0439L131.94 69.985H130.473Z" fill="#0F2837"/>
<path id="Vector_15" d="M133.127 72.6149C133.895 72.3356 134.64 71.9865 135.291 71.6141C135.943 71.2417 136.525 70.8461 137.014 70.4271C137.502 70.0082 137.875 69.5893 138.131 69.1936C138.41 68.7747 138.55 68.379 138.55 68.0066C138.55 67.7739 138.503 67.4713 138.41 67.1222C138.317 66.7731 138.177 66.3775 137.991 65.9353C137.805 65.4931 137.596 65.0741 137.363 64.6086C137.13 64.1432 136.851 63.701 136.571 63.282L138.131 62.4209C138.736 63.2355 139.225 64.1199 139.551 65.0974C139.876 66.0749 140.086 67.0059 140.086 67.8437C140.086 69.1936 139.551 70.4271 138.526 71.5908C137.502 72.708 136.036 73.6389 134.128 74.3371L133.127 72.6149ZM137.107 60.6521L135.78 59.2789L137.107 57.9058L138.433 59.2789L137.107 60.6521Z" fill="#0F2837"/>
<path id="Vector_16" d="M142.925 72.5216C146.044 72.0794 147.836 70.9622 148.325 69.1236C148.046 69.3563 147.696 69.496 147.301 69.6356C146.928 69.752 146.509 69.7985 146.091 69.7985C145.136 69.7985 144.392 69.4494 143.81 68.7978C143.228 68.1461 142.949 67.2617 142.949 66.1911C142.949 65.586 143.042 65.0274 143.205 64.5154C143.368 64.0033 143.624 63.5611 143.926 63.1887C144.229 62.8164 144.578 62.5138 145.02 62.3043C145.439 62.0949 145.881 61.9785 146.37 61.9785C147.487 61.9785 148.371 62.4905 149 63.4913C149.628 64.5154 149.931 65.9351 149.931 67.797C149.931 68.6581 149.791 69.4727 149.489 70.1942C149.186 70.9157 148.767 71.5906 148.232 72.1492C147.696 72.7078 147.022 73.1733 146.277 73.5456C145.509 73.918 144.671 74.174 143.717 74.2904L142.925 72.5216ZM146.347 68.053C146.742 68.053 147.138 68.0065 147.534 67.8901C147.906 67.7737 148.208 67.6341 148.441 67.4479C148.395 66.3075 148.185 65.423 147.813 64.7947C147.44 64.1663 146.928 63.8637 146.3 63.8637C145.741 63.8637 145.276 64.0732 144.927 64.4921C144.578 64.911 144.392 65.4463 144.392 66.1213C144.392 66.7264 144.554 67.1919 144.927 67.541C145.253 67.8901 145.741 68.053 146.347 68.053Z" fill="#0F2837"/>
<path id="Vector_17" d="M0.581848 77.6885H2.35067L6.21414 84.2983L10.1009 77.6885H11.7999L12.405 90.396H10.5896L10.194 80.621L6.60979 86.6257H5.67884L2.1412 80.6908L1.72227 90.396H0L0.581848 77.6885Z" fill="#0F2837"/>
<path id="Vector_18" d="M15.5231 77.6191L16.8729 78.969L15.5231 80.3422L14.1499 78.969L15.5231 77.6191ZM14.6852 81.5292H16.3842V90.3965H14.6852V81.5292Z" fill="#0F2837"/>
<path id="Vector_19" d="M18.8284 90.3968V82.4604V82.1113C18.8284 81.9949 18.8284 81.8087 18.8052 81.5527H20.4343L20.4809 82.8793C20.5973 82.7397 20.7369 82.5535 20.8998 82.3673C21.0627 82.1811 21.2722 82.0182 21.5049 81.8553C21.7377 81.7156 22.0402 81.576 22.3428 81.4829C22.6686 81.3898 23.041 81.3433 23.4367 81.3433C24.6004 81.3433 25.4382 81.6924 26.0201 82.3673C26.5787 83.0423 26.8579 83.9732 26.8579 85.1136V90.4201H25.159V85.23C25.159 84.3921 24.996 83.8103 24.6237 83.4146C24.2745 83.019 23.7625 82.8328 23.1109 82.8328C22.6221 82.8328 22.2032 82.9259 21.8773 83.1354C21.5282 83.3448 21.2722 83.6008 21.086 83.9267C20.8766 84.2525 20.7369 84.6249 20.6438 85.0438C20.5507 85.4628 20.5042 85.8817 20.5042 86.3239V90.4434H18.8284V90.3968Z" fill="#0F2837"/>
<path id="Vector_20" d="M29.837 77.6191L31.1869 78.969L29.837 80.3422L28.4639 78.969L29.837 77.6191ZM28.9759 81.5292H30.6749V90.3965H28.9759V81.5292Z" fill="#0F2837"/>
<path id="Vector_21" d="M33.5603 88.1625C33.8862 88.4884 34.2586 88.7211 34.7008 88.9306C35.143 89.1167 35.655 89.2098 36.2368 89.2098C36.7954 89.2098 37.2842 89.1167 37.6566 88.9306C38.0289 88.7444 38.2151 88.4651 38.2151 88.0694C38.2151 87.86 38.1686 87.697 38.0755 87.5341C37.9824 87.3945 37.8427 87.2548 37.6566 87.1385C37.4704 87.0221 37.2143 86.9057 36.8652 86.8126C36.5394 86.7195 36.1437 86.6032 35.655 86.4868C35.3059 86.417 34.9801 86.3239 34.6309 86.1842C34.2818 86.0446 34.0025 85.8817 33.7233 85.6722C33.4672 85.4627 33.2345 85.2067 33.0716 84.9042C32.9087 84.6016 32.8388 84.2525 32.8388 83.8336C32.8388 83.3914 32.9319 83.019 33.1414 82.7164C33.3276 82.3906 33.5836 82.1113 33.9327 81.8786C34.2818 81.6458 34.6309 81.4829 35.0499 81.3665C35.4688 81.2502 35.8877 81.2036 36.3299 81.2036C37.0747 81.2036 37.7264 81.2967 38.2617 81.5062C38.797 81.7156 39.2857 81.9717 39.6814 82.344L38.7504 83.531C38.4944 83.2983 38.1453 83.0888 37.7496 82.9026C37.354 82.7397 36.8885 82.6699 36.3299 82.6699C35.7946 82.6699 35.3292 82.763 35.0266 82.9259C34.6775 83.0888 34.5378 83.3914 34.5378 83.8103C34.5378 84.1827 34.7706 84.462 35.1895 84.6482C35.6317 84.8343 36.2136 84.9973 36.9118 85.1834C37.3307 85.2765 37.7264 85.4162 38.0755 85.5326C38.4246 85.6722 38.7504 85.8351 39.0297 86.0446C39.309 86.2541 39.5185 86.5101 39.6814 86.8126C39.821 87.1152 39.9141 87.4876 39.9141 87.9298C39.9141 88.372 39.821 88.7676 39.6116 89.0935C39.4021 89.4426 39.1461 89.7219 38.7737 89.9313C38.4246 90.1641 38.0522 90.327 37.5867 90.4434C37.1445 90.5597 36.6558 90.6063 36.1903 90.6063C34.5146 90.6063 33.2578 90.1641 32.4199 89.2564L33.5603 88.1625Z" fill="#0F2837"/>
<path id="Vector_22" d="M42.7538 82.9483H41.1479V81.5285H42.7538V78.6426H44.4528V81.5285H47.0362V82.9483H44.4528V87.3237C44.4528 88.0452 44.5692 88.534 44.8019 88.79C45.0347 89.046 45.3373 89.1857 45.7329 89.1857C46.082 89.1857 46.338 89.1391 46.5708 89.046C46.7802 88.9529 47.013 88.79 47.2224 88.6038L48.0138 89.6511C47.6414 90.0002 47.269 90.2795 46.8733 90.4192C46.4777 90.5588 46.0355 90.6519 45.4769 90.6519C44.5459 90.6519 43.8477 90.3959 43.4055 89.8839C42.9633 89.3719 42.7538 88.5805 42.7538 87.5099V82.9483Z" fill="#0F2837"/>
<path id="Vector_23" d="M49.4569 90.3962V82.3899V82.0874C49.4569 81.971 49.4569 81.7848 49.4336 81.5521H51.0628L51.1093 82.9718C51.2024 82.8321 51.3421 82.646 51.505 82.4598C51.6679 82.2736 51.8774 82.1107 52.1101 81.9477C52.3428 81.8081 52.6221 81.6684 52.948 81.5521C53.2738 81.4357 53.6229 81.3892 54.0186 81.3892C54.2047 81.3892 54.3909 81.4124 54.5539 81.4357C54.7168 81.459 54.8564 81.4823 54.9961 81.5521L54.6237 83.158C54.3909 83.0649 54.0884 83.0183 53.7393 83.0183C53.3669 83.0183 53.0178 83.0882 52.7152 83.2278C52.3894 83.3674 52.1334 83.5769 51.9006 83.8097C51.6679 84.0424 51.4817 84.345 51.3653 84.6708C51.2257 85.0199 51.1559 85.3457 51.1559 85.7181V90.3962H49.4569Z" fill="#0F2837"/>
<path id="Vector_24" d="M56.742 92.5611C56.8816 92.6775 57.0213 92.7706 57.1842 92.8637C57.3471 92.9568 57.5566 93.0033 57.8126 93.0033C58.0221 93.0033 58.185 92.9568 58.3479 92.8637C58.5108 92.7706 58.6272 92.6309 58.7435 92.4448C58.8599 92.2586 58.9763 92.0258 59.0927 91.7931C59.209 91.5371 59.3254 91.2345 59.465 90.8854L59.6978 90.3268L55.7412 81.5293H57.7195L60.5822 88.2089L63.0958 81.5293H64.9577L61.3968 90.1639C61.2339 90.5828 61.0477 91.025 60.8847 91.5138C60.7218 92.0026 60.4891 92.468 60.2563 92.9102C60.0003 93.3524 59.6978 93.7248 59.3254 94.0041C58.953 94.3067 58.4875 94.4463 57.929 94.4463C57.4868 94.4463 57.0911 94.3998 56.8118 94.2601C56.5093 94.1437 56.2532 93.9808 55.9972 93.7714L56.742 92.5611Z" fill="#0F2837"/>
<path id="Vector_25" d="M73.3594 90.6528C72.6844 90.6528 72.056 90.5132 71.4509 90.2804C70.8923 90.0477 70.3803 89.6986 69.9614 89.2564C69.5425 88.8142 69.2399 88.3254 68.9839 87.7436C68.7511 87.185 68.6348 86.5799 68.6348 85.9282C68.6348 85.2765 68.7511 84.6714 68.9839 84.1129C69.2166 83.5543 69.5425 83.0423 69.9614 82.6C70.3803 82.1578 70.8691 81.832 71.4509 81.576C72.0095 81.3433 72.6612 81.2036 73.3594 81.2036C74.0343 81.2036 74.6627 81.3433 75.2446 81.576C75.8031 81.8087 76.3152 82.1578 76.7341 82.6C77.153 83.0423 77.4789 83.531 77.7116 84.1129C77.9443 84.6714 78.0607 85.2765 78.0607 85.9282C78.0607 86.5799 77.9443 87.185 77.7116 87.7436C77.4789 88.3022 77.153 88.8142 76.7341 89.2564C76.3152 89.6986 75.8031 90.0244 75.2446 90.2804C74.6627 90.5365 74.0343 90.6528 73.3594 90.6528ZM73.3594 89.1633C73.8016 89.1633 74.2205 89.0702 74.5929 88.884C74.9653 88.6978 75.2678 88.4418 75.5238 88.1625C75.7799 87.86 75.9661 87.5341 76.1057 87.1385C76.2453 86.7428 76.3152 86.3472 76.3152 85.9515C76.3152 85.5558 76.2453 85.1602 76.1057 84.7645C75.9661 84.3689 75.7566 84.043 75.5238 83.7405C75.2678 83.4379 74.9653 83.2052 74.5929 83.019C74.2438 82.8328 73.8249 82.7397 73.3594 82.7397C72.9172 82.7397 72.4982 82.8328 72.1259 83.019C71.7535 83.2052 71.4509 83.4612 71.1949 83.7405C70.9389 84.043 70.7527 84.3689 70.613 84.7645C70.4734 85.1602 70.4036 85.5558 70.4036 85.9748C70.4036 86.3937 70.4734 86.7893 70.613 87.1617C70.7527 87.5341 70.9622 87.8832 71.1949 88.1858C71.4509 88.4883 71.7535 88.7211 72.1259 88.9073C72.475 89.0702 72.8939 89.1633 73.3594 89.1633Z" fill="#0F2837"/>
<path id="Vector_26" d="M80.6674 82.9489H79.0615V81.5291H80.6674V80.8076C80.6674 80.2025 80.7605 79.6905 80.9234 79.2483C81.0864 78.8061 81.3191 78.457 81.5984 78.1777C81.8777 77.8984 82.2268 77.6889 82.5759 77.5493C82.9483 77.4097 83.3207 77.3398 83.7396 77.3398C84.2051 77.3398 84.6705 77.4097 85.136 77.5726C85.5782 77.7122 85.9972 77.9682 86.3695 78.3173L85.5084 79.4345C85.0429 79.0388 84.5309 78.8526 83.9956 78.8526C83.5068 78.8526 83.0879 79.0156 82.8086 79.3181C82.5061 79.644 82.3664 80.1793 82.3664 80.9473V81.5059H84.9033V82.9256H82.3664V90.3732H80.6674V82.9489Z" fill="#0F2837"/>
<path id="Vector_27" d="M101.428 88.1622C101.288 88.395 101.079 88.651 100.776 88.9535C100.474 89.2561 100.124 89.5121 99.7056 89.7914C99.2866 90.0707 98.7979 90.2801 98.2626 90.4431C97.7273 90.606 97.1222 90.6991 96.4705 90.6991C95.5395 90.6991 94.6784 90.5362 93.8871 90.2103C93.119 89.8612 92.4441 89.419 91.8855 88.8139C91.327 88.232 90.8847 87.5105 90.5822 86.7192C90.2563 85.9046 90.1167 85.0202 90.1167 84.066C90.1167 83.135 90.2563 82.2739 90.5822 81.4593C90.908 80.6447 91.327 79.9465 91.8855 79.3181C92.4441 78.6897 93.119 78.2242 93.8871 77.8751C94.6784 77.526 95.5395 77.3398 96.4938 77.3398C97.1687 77.3398 97.7738 77.4097 98.3091 77.5726C98.8444 77.7355 99.3099 77.945 99.7288 78.201C100.124 78.4337 100.474 78.7363 100.753 79.0156C101.032 79.3181 101.288 79.5741 101.451 79.8534L100.148 80.9706C100.008 80.7611 99.7987 80.5284 99.6125 80.2956C99.403 80.0629 99.147 79.8534 98.8677 79.6672C98.5651 79.481 98.2393 79.3181 97.8436 79.2018C97.4713 79.0621 97.0058 79.0156 96.5403 79.0156C95.8421 79.0156 95.2137 79.1552 94.6551 79.4112C94.1198 79.6672 93.6311 80.0396 93.2354 80.5051C92.8398 80.9473 92.5605 81.5059 92.351 82.111C92.1415 82.7394 92.0484 83.3678 92.0484 84.066C92.0484 84.7642 92.1648 85.3926 92.3743 85.9977C92.5837 86.6029 92.8863 87.1149 93.2587 87.5804C93.6311 88.0226 94.0965 88.3717 94.6551 88.6277C95.1904 88.8604 95.8188 89.0001 96.4938 89.0001C97.0523 89.0001 97.5644 88.9302 97.9833 88.7673C98.4022 88.6277 98.7513 88.4415 99.0306 88.232C99.3099 88.0226 99.5659 87.8131 99.7521 87.6036C99.9383 87.3942 100.101 87.2313 100.218 87.0683L101.428 88.1622Z" fill="#0F2837"/>
<path id="Vector_28" d="M103.22 81.5287H104.919V86.742C104.919 87.5799 105.081 88.185 105.431 88.5574C105.78 88.9297 106.268 89.1159 106.92 89.1159C107.409 89.1159 107.828 89.0229 108.154 88.8134C108.479 88.6039 108.735 88.3479 108.945 88.0221C109.154 87.6962 109.294 87.3239 109.387 86.9049C109.457 86.486 109.527 86.0671 109.527 85.6249V81.5054H111.226V89.4651V89.8142C111.226 90.0004 111.226 90.1865 111.249 90.3495H109.62L109.573 89.0461C109.457 89.1858 109.317 89.372 109.154 89.5349C108.992 89.6978 108.782 89.884 108.526 90.0236C108.293 90.1633 107.991 90.2796 107.688 90.396C107.362 90.4891 107.013 90.5356 106.594 90.5356C105.431 90.5356 104.593 90.1865 104.034 89.5349C103.499 88.8832 103.196 87.9522 103.196 86.7886L103.22 81.5287Z" fill="#0F2837"/>
<path id="Vector_29" d="M115.299 77.6885H113.6V90.396H115.299V77.6885Z" fill="#0F2837"/>
<path id="Vector_30" d="M118.417 82.9483H116.812V81.5285H118.417V78.6426H120.116V81.5285H122.7V82.9483H120.116V87.3237C120.116 88.0452 120.233 88.534 120.466 88.79C120.698 89.046 121.001 89.1857 121.396 89.1857C121.746 89.1857 122.002 89.1391 122.234 89.046C122.444 88.9529 122.677 88.79 122.886 88.6038L123.677 89.6511C123.305 90.0002 122.933 90.2795 122.56 90.4192C122.165 90.5588 121.722 90.6519 121.164 90.6519C120.233 90.6519 119.535 90.3959 119.092 89.8839C118.65 89.3719 118.441 88.5805 118.441 87.5099L118.417 82.9483Z" fill="#0F2837"/>
<path id="Vector_31" d="M124.748 81.5287H126.447V86.742C126.447 87.5799 126.61 88.185 126.959 88.5574C127.308 88.9297 127.797 89.1159 128.448 89.1159C128.937 89.1159 129.356 89.0229 129.682 88.8134C130.008 88.6039 130.264 88.3479 130.473 88.0221C130.683 87.6962 130.822 87.3239 130.915 86.9049C130.985 86.486 131.055 86.0671 131.055 85.6249V81.5054H132.754V89.4651V89.8142C132.754 90.0004 132.754 90.1865 132.777 90.3495H131.148L131.102 89.0461C130.985 89.1858 130.846 89.372 130.683 89.5349C130.52 89.6978 130.31 89.884 130.054 90.0236C129.822 90.1633 129.519 90.2796 129.216 90.396C128.891 90.4891 128.542 90.5356 128.123 90.5356C126.959 90.5356 126.121 90.1865 125.562 89.5349C125.027 88.8832 124.725 87.9522 124.725 86.7886L124.748 81.5287Z" fill="#0F2837"/>
<path id="Vector_32" d="M135.129 90.3962V82.3899V82.0874C135.129 81.971 135.129 81.7848 135.105 81.5521H136.735L136.781 82.9718C136.874 82.8321 137.014 82.646 137.177 82.4598C137.34 82.2736 137.549 82.1107 137.782 81.9477C138.015 81.8081 138.294 81.6684 138.62 81.5521C138.946 81.4357 139.295 81.3892 139.69 81.3892C139.877 81.3892 140.063 81.4124 140.226 81.4357C140.389 81.459 140.528 81.4823 140.668 81.5521L140.296 83.158C140.063 83.0649 139.76 83.0183 139.411 83.0183C139.039 83.0183 138.69 83.0882 138.387 83.2278C138.061 83.3674 137.805 83.5769 137.572 83.8097C137.34 84.0424 137.154 84.345 137.037 84.6708C136.898 85.0199 136.828 85.3457 136.828 85.7181V90.3962H135.129Z" fill="#0F2837"/>
<path id="Vector_33" d="M149.674 89.0935C149.581 89.2099 149.418 89.3495 149.232 89.5357C149.023 89.6986 148.767 89.8848 148.441 90.0477C148.115 90.2106 147.719 90.3503 147.3 90.4899C146.858 90.6063 146.369 90.6761 145.788 90.6761C145.089 90.6761 144.484 90.5597 143.879 90.327C143.297 90.0943 142.809 89.7917 142.413 89.3495C141.994 88.9306 141.691 88.4185 141.482 87.8367C141.249 87.2548 141.133 86.6032 141.133 85.8817C141.133 85.23 141.249 84.6249 141.459 84.0663C141.668 83.5077 141.994 83.019 142.39 82.6001C142.785 82.1811 143.251 81.8786 143.809 81.6225C144.368 81.3665 144.926 81.2734 145.601 81.2734C146.369 81.2734 147.021 81.4131 147.58 81.7156C148.115 82.0182 148.58 82.3906 148.93 82.8793C149.279 83.3681 149.535 83.9034 149.698 84.5318C149.861 85.1602 149.93 85.8119 149.93 86.4868H142.925C142.948 86.8825 143.018 87.2316 143.181 87.5807C143.344 87.9298 143.553 88.2091 143.809 88.4418C144.065 88.6745 144.368 88.884 144.74 89.0004C145.089 89.14 145.462 89.2099 145.834 89.2099C146.579 89.2099 147.207 89.0702 147.673 88.8375C148.162 88.5814 148.511 88.3254 148.72 88.0927L149.674 89.0935ZM148.138 85.1835C148.092 84.4852 147.836 83.9034 147.417 83.4379C146.975 82.9492 146.393 82.7164 145.601 82.7164C145.182 82.7164 144.833 82.7863 144.508 82.9259C144.182 83.0655 143.902 83.2517 143.67 83.4612C143.437 83.6939 143.251 83.9499 143.134 84.2525C142.995 84.5551 142.925 84.8576 142.925 85.1835H148.138Z" fill="#0F2837"/>
<path id="Vector_34" d="M118.744 5.84189C117.813 18.5495 118.953 31.1872 118.65 43.9878C118.604 46.3385 118.883 48.8521 118.697 51.226C118.674 51.5053 118.604 51.7148 118.162 51.7381C117.58 51.6915 116.998 51.6217 116.416 51.7381C116.23 50.0391 116.3 48.7357 116.16 47.2695C115.811 44.0809 116.02 41.4743 115.997 38.0064C115.951 32.0483 115.462 25.9971 115.881 20.0623C116.02 17.9443 116.044 14.4765 115.927 12.3586C115.811 10.1941 115.695 8.61148 115.834 5.86516C116.882 5.72552 117.836 5.72552 118.744 5.84189Z" fill="#EB5A3C"/>
<path id="Vector_35" d="M13.3591 2.25817C14.3832 2.35126 14.8719 2.6771 14.9418 3.8408C15.0581 5.58634 14.8021 6.5173 14.9883 8.23957C15.6167 13.9184 14.2668 19.6671 14.8719 25.3692C15.1978 28.3715 14.8952 31.0713 14.9883 34.0736C15.1279 38.5655 14.9418 43.6625 14.8487 48.9224H0.861035C0.372282 48.2242 0.465378 44.7331 0.628295 43.8254C0.767939 43.0341 0.767939 42.2195 0.744665 41.4049C0.698117 38.1 0.90758 35.1442 0.884306 31.8393C0.861032 29.9076 0.837758 27.9526 0.535198 26.0441C0.255911 24.3451 0.674843 21.3893 0.442103 19.6671C0.116269 17.5259 -0.0466503 4.79503 0.0697193 2.35127C0.0464453 2.32799 11.7067 2.09525 13.3591 2.25817Z" fill="#EB5A3C"/>
<path id="Vector_36" d="M39.007 5.23679C38.1924 4.93423 38.332 5.88846 38.332 6.37721C38.332 6.84269 38.332 7.12198 38.3087 7.75037C38.2855 8.96062 38.4018 12.3353 38.4018 13.5456C38.4251 15.5704 38.5415 17.3625 38.5182 18.9451C38.4484 21.9475 38.4484 24.9731 38.5648 27.9987C38.8673 35.4929 38.5182 43.0336 38.7277 50.4813C38.7509 51.1097 39.1699 51.3192 39.7517 51.4588L40.6129 51.5984C40.5663 45.2214 41.0783 38.5185 40.6827 32.1414C40.5198 29.4649 40.6129 26.835 40.6129 24.1585C40.6129 21.5984 40.5896 19.0615 40.6361 16.5014C40.6827 14.942 40.6594 13.4059 40.5896 11.8466C40.543 9.93812 40.6361 6.23757 40.1241 5.72555C39.8448 5.39971 39.519 5.42298 39.007 5.23679Z" fill="#6E1946"/>
<path id="Vector_37" d="M25.1824 46.3384C26.0203 46.3151 25.8573 45.6867 25.8573 45.1747C25.8573 44.7092 25.9737 44.4299 25.9737 43.8015C25.997 42.568 25.9272 39.17 25.9039 37.9598C25.8806 35.9117 25.7642 34.1196 25.8108 32.5137C25.8806 29.4648 25.9272 26.4392 25.8108 23.3903C25.5548 15.8263 25.9504 8.23897 25.7642 0.721493C25.741 0.0698232 25.322 0.0465478 24.5773 0L23.5532 0.0465436C23.5532 6.49342 23.623 13.336 23.6929 20.2018C23.7394 22.8783 23.6929 24.9729 23.6929 27.6494C23.6929 30.2328 23.7394 32.2809 23.7394 34.8643C23.7394 36.2375 23.6929 37.727 23.6696 39.6355C23.6463 41.5672 23.5532 45.2212 24.0187 45.8031C24.3445 46.2453 24.6704 46.3384 25.1824 46.3384Z" fill="#91B9B4"/>
<path id="Vector_38" d="M43.5921 50.2955C42.824 50.2024 42.7077 49.8533 42.7309 48.9689C42.8007 46.339 42.6378 40.7067 42.3585 37.2621C42.1258 34.1434 42.1724 30.9549 42.568 27.8828C42.824 25.7416 42.4516 24.1589 42.4516 21.5057C42.4284 18.0379 42.6378 15.3148 42.6378 12.9642C42.6146 11.5212 42.5913 10.0782 42.4982 8.63523C42.4516 7.28535 42.4516 4.30628 42.4516 3.98045C42.6844 3.91063 43.4757 3.9339 43.6852 3.9339C44.4299 4.00372 44.8023 4.09681 45.3143 4.3761C45.6402 5.74926 45.5471 8.6585 45.5471 10.2877C45.5471 11.2419 45.5005 15.1985 45.5471 16.1294C45.6634 17.7121 45.5936 19.2947 45.5936 20.8773C45.6169 22.8789 45.7333 24.927 45.7333 26.9285C45.7333 29.4887 45.5238 32.0255 45.454 34.5856C45.3376 39.3103 45.9427 45.3847 45.8962 49.318C45.8729 50.1093 45.966 50.5283 45.1514 50.5283C45.1514 50.4817 44.3601 50.3886 43.5921 50.2955Z" fill="#EB5A3C"/>
<path id="Vector_39" d="M114.414 48.131C114.554 46.1759 114.158 43.1503 114.158 41.5677C114.158 40.6368 114.042 36.8431 114.112 35.9121C114.205 34.3993 114.135 32.84 114.135 31.3039C114.135 29.3489 114.252 27.3939 114.228 25.4389C114.205 22.9486 113.972 20.5048 113.879 18.0145C113.693 12.871 114.461 6.00516 114.135 2.37443C112.832 2.09514 111.249 2.02532 109.504 2.04859C109.061 4.91129 109.178 7.79725 109.248 11.2883C109.294 13.5692 109.085 16.1991 109.131 19.5739C109.178 22.134 109.83 25.1829 109.574 27.2775C109.201 30.2566 109.131 33.352 109.434 36.3776C109.853 40.7066 109.69 47.7818 109.76 47.8749L114.414 48.131Z" fill="#B41932"/>
<path id="Vector_40" d="M128.053 48.2473C128.262 42.9175 128.216 39.7057 128.309 35.0975C128.355 31.8391 127.867 27.7429 127.913 24.3217C128.03 18.0377 128.099 15.8965 127.587 10.0548C127.471 8.75142 127.657 6.28439 127.611 4.95777C127.564 4.07336 127.541 2.95622 127.518 2.07181C127.518 2.07181 131.823 3.00276 135.151 2.30455C140.458 1.1874 149.255 2.3511 149.255 2.3511C149.791 3.25878 149.861 5.33016 149.837 5.81891C149.744 9.65911 149.674 8.30921 149.791 12.1494C149.93 15.7801 149.255 18.9919 149.255 24.0889C149.255 27.4404 149.767 29.6747 149.884 31.909C150 34.2131 149.605 36.1448 149.744 39.7988C149.837 42.0564 149.791 47.968 149.814 48.5033C149.814 48.5033 133.988 48.5964 130.59 48.1774C128.821 47.968 128.053 48.2473 128.053 48.2473Z" fill="#6E1946"/>
<path id="Vector_41" d="M99.0769 0.11637C99.17 8.07605 99.2165 16.8969 99.6122 24.0885C99.7518 26.4857 99.6587 29.4881 99.7518 32.2111C99.7984 33.4213 99.5889 35.8651 99.4958 37.471C99.426 38.7743 99.4493 40.101 99.4725 41.4043C99.5191 42.8007 99.5191 45.71 99.426 45.7565C98.6114 45.6169 97.7503 45.6169 96.8426 45.7565C96.54 44.6859 96.7495 43.6851 96.7728 42.5913C96.9357 33.0257 96.2607 26.0668 96.4237 17.2692C96.4702 14.4066 96.3771 10.4965 96.1676 7.68039C95.9815 5.21336 96.0513 2.44376 96.3538 0C97.3081 0 98.2157 0.0232739 99.0769 0.11637Z" fill="#FAC39B"/>
<path id="Vector_42" d="M125.656 0.558752C125.889 4.67824 125.702 7.37801 125.796 10.9156C125.865 14.0111 126.214 16.6643 126.028 20.2019C125.865 23.2741 126.168 26.3463 126.261 29.4184C126.308 32.3975 126.377 35.3998 126.401 38.4021C126.447 40.7063 126.517 42.8242 126.517 45.1516C126.517 45.5472 126.47 46.3618 126.47 46.7575C126.47 46.7575 125.656 46.6178 124.865 46.6877C122.863 46.8739 121.304 46.6411 120.722 46.5247C120.233 46.4084 120.652 38.309 120.675 37.5643C120.722 34.5154 120.722 31.4898 120.722 28.4409C120.699 25.3687 120.419 22.0871 120.373 19.0382C120.326 15.9195 120.489 13.0103 120.419 9.91487C120.349 6.77289 120.256 4.11966 120.163 0.977679C120.14 0.349283 120.745 0.000174701 121.769 0.279462C123.026 0.605297 124.446 0.163095 125.656 0.558752Z" fill="#FF9619"/>
<path id="Vector_43" d="M20.2251 4.39899C21.1561 4.53864 21.8543 5.42304 21.8776 6.47037C21.9009 7.98317 21.8776 9.30979 21.831 10.6131C21.7845 12.0794 21.7379 13.4991 21.7845 15.105C21.8543 21.5984 22.1336 27.8126 21.8543 34.5154C21.6216 40.2175 22.1336 45.7567 22.087 50.9934C20.3648 50.9003 18.2934 50.7374 16.6177 50.6443C17.0832 41.0089 16.7806 31.8855 16.6642 21.8544C16.6177 16.2221 17.5254 11.8001 16.734 4.28262C17.9676 4.18953 19.1313 4.25935 20.2251 4.39899Z" fill="#6E1946"/>
<path id="Vector_44" d="M94.7247 25.8114C94.6083 22.3669 94.6316 15.8968 94.8876 12.4289C95.1669 8.58875 94.2359 2.79354 92.118 2.90991C90.2794 2.81681 88.2545 3.02628 86.3926 3.11937C84.9031 3.1892 83.0179 3.18919 81.5284 3.32884C78.9915 3.56158 78.7122 3.21247 76.1521 3.21247C72.9636 3.21247 70.2173 3.46848 67.0287 3.46848C63.9566 3.46848 60.512 3.39866 57.4399 3.14265C54.4143 2.90991 51.2025 2.49098 48.2001 2.58408C47.7579 2.60735 47.5252 4.53908 47.4321 6.93629C47.3623 9.24041 47.1993 14.221 47.3855 16.6182C48.8052 14.896 50.5508 14.2443 52.2963 14.0581C53.6928 13.9185 55.2987 13.8487 56.8115 14.0814C56.9511 14.1047 55.834 13.0341 54.903 12.2893C54.3677 11.8704 53.7859 11.4514 53.1342 11.3583C52.3196 11.242 51.4817 11.3118 50.6439 11.2652C51.249 10.7299 52.2963 9.42661 54.8797 9.75244C56.2762 9.93863 58.6036 12.3591 59.4414 11.7074C60.3724 10.986 60 8.09999 61.2335 7.77416C62.2576 7.51814 62.9092 11.3583 63.398 12.1962C64.5151 10.7532 66.2141 9.70589 68.0295 9.5197C68.9837 9.40333 71.9163 9.75244 72.3119 11.1489C72.3119 11.1256 68.5648 10.4739 66.2607 13.8254C69.5423 12.522 72.8705 12.9642 75.6633 15.1054C76.4314 15.7106 76.9434 16.3157 77.4554 17.0372C78.2002 18.0612 78.1071 18.5034 78.0838 19.0853C76.8736 18.8525 75.7332 16.7346 73.6385 16.1062C71.8697 15.5709 69.9845 15.664 68.2157 16.1993C72.2188 16.851 77.758 22.1807 75.8495 26.5562C75.2211 27.9759 75.0582 27.0217 74.8255 25.8347C74.5695 24.415 74.1738 23.6237 73.4989 22.6927C72.917 21.8782 72.2886 21.1799 71.5671 20.505C70.9387 19.8766 68.9605 19.0155 68.0295 19.0853C70.6129 19.8068 72.2654 24.9503 72.4748 25.4856C73.0101 26.8122 73.0101 28.3483 73.0334 29.7447C73.0567 30.5593 73.1265 33.3987 72.1024 33.6548C72.1257 33.6548 72.2654 26.7889 67.4244 22.8789C68.6812 25.09 68.7975 27.813 68.6346 30.3033C68.5648 31.6997 68.3321 32.8169 67.7037 34.0737C67.564 34.353 67.0753 35.6098 66.8658 35.6563C66.2374 35.796 66.5632 31.8161 66.4702 31.1179C66.3538 30.2568 64.7712 24.3452 63.1187 25.8114C62.2808 26.5329 62.6998 29.8611 62.8161 31.3274C62.9558 33.1195 63.1653 35.7727 63.1885 37.5881C63.2584 41.3352 63.3514 43.9884 63.8402 47.7587C68.1692 45.4314 87.1374 35.7261 89.8372 43.7324C89.8604 43.9884 89.6975 43.8022 89.6975 43.8022C87.8356 41.0326 82.7852 42.4523 80.2483 43.2436C75.7332 44.64 71.4275 46.8278 67.3546 49.1552C74.0574 49.1785 84.4143 49.1552 92.0715 49.1552C93.8403 49.1552 95.2367 47.6889 95.1902 45.9201C95.1436 44.6168 95.1203 43.0574 95.1203 41.405C95.1203 39.4965 95.2134 37.4717 95.26 35.5632C95.3531 31.8394 94.8643 29.6051 94.7247 25.8114ZM57.0675 29.768C56.8115 30.7455 56.4624 32.398 56.4391 32.8402C56.3925 33.2824 56.0434 35.6098 56.0434 35.6098C55.9038 35.5167 55.8107 35.3538 55.7176 35.1676C54.7634 33.0031 54.9496 29.5818 54.9496 29.5818C55.2987 24.2055 57.2071 22.7626 57.2071 22.7858C56.346 22.2971 54.6237 24.3219 53.6928 25.602C52.4825 27.301 52.6687 28.4647 52.5291 31.1412C51.8774 31.0015 51.2257 29.9309 51.2025 29.1163C50.9697 24.927 52.8316 21.0868 54.8565 19.5275C55.0892 19.318 52.5524 19.83 52.0869 19.993C50.4344 20.6679 49.2475 21.8549 48.4329 23.4375C46.7339 26.7424 47.8045 30.6757 47.595 34.3064C47.4554 36.4011 47.7579 38.4492 47.7346 40.5438C47.7114 42.1265 47.3157 42.429 48.8983 42.5454C49.5267 42.5919 50.1319 42.685 50.7603 42.8247C54.4841 43.6393 57.4399 45.3383 60.0465 48.038C60.4655 43.2203 60.512 38.7517 60.512 33.9108C60.512 32.0023 60.8379 27.8828 59.5578 26.2536C58.2777 24.6012 57.3701 28.6741 57.0675 29.768ZM47.9674 43.872C47.8743 45.7572 48.0139 47.2467 48.0139 49.4577C49.8526 49.3181 50.9697 49.5043 52.8084 49.5974C54.5772 49.7138 56.4624 49.5276 58.2079 49.737C55.5314 46.8278 52.0636 44.2211 47.9674 43.872ZM50.993 17.9914C51.6447 17.5492 54.3677 16.176 54.6935 16.1993C52.7385 15.4546 50.3879 15.6407 48.6889 16.7346C47.0132 17.7819 47.5717 20.7145 47.3623 22.5996C48.1769 20.9007 49.4336 19.0387 50.993 17.9914Z" fill="#0F2837"/>
<path id="Vector_45" d="M106.385 3.7939C106.618 3.84045 106.827 4.02664 106.827 4.28266C106.967 9.49601 107.06 14.1973 107.409 19.5969C107.549 21.7381 107.642 24.9033 107.339 27.4169C106.92 30.7218 107.781 33.3983 107.549 36.7265C107.246 41.1253 107.898 44.7094 107.642 49.1082L102.196 49.2246C101.753 49.2479 101.335 48.8057 101.404 47.7583C101.451 46.711 101.381 42.1959 101.381 38.7979C101.381 35.3999 101.823 32.2579 101.451 28.4643C101.265 26.6023 101.707 24.6241 101.591 22.7621C101.404 19.3874 101.288 16.4084 101.218 13.0337C101.172 11.0321 101.218 7.95993 101.172 5.98165C101.125 4.60849 101.428 3.60771 102.196 3.25861C103.034 2.88622 105.407 3.65426 106.385 3.7939Z" fill="#91B9B4"/>
<path id="Vector_46" d="M27.719 43.8255C27.6724 45.0822 27.6491 45.5244 27.6491 46.0132C27.6491 46.339 27.9284 46.3856 28.1844 46.5252C28.3474 46.6183 29.8136 46.9209 30.3024 47.0373C30.7213 47.1304 31.3264 47.1769 31.7221 47.1769C33.1418 47.1536 34.5382 47.6424 35.9579 47.526C36.0045 47.526 36.051 47.5027 36.0976 47.4795C36.2139 47.4096 36.6096 47.2234 36.726 46.4321C36.8889 45.2219 36.563 44.1746 36.7492 42.0101C36.9354 39.8223 36.7725 33.9108 36.7958 32.4911C36.8889 21.7152 36.2605 21.5523 36.563 13.2203C36.6561 10.2877 36.5863 9.31023 36.2605 6.23808C36.1907 5.42349 35.8183 3.37538 36.0045 1.9324C36.0743 1.3971 35.7717 0.978175 35.2597 0.954901C32.9323 0.838532 28.0215 1.18764 28.0215 1.18764C27.7655 2.28151 27.6957 3.30556 27.7888 4.74855C27.8353 5.7726 27.6491 7.42505 27.6491 8.4491C27.6491 9.58952 27.5793 10.7299 27.6259 11.8936C27.7655 14.9658 27.8586 18.0612 27.7655 21.1101C27.5328 28.9069 28.2077 33.422 27.9051 41.0791L27.719 43.8255Z" fill="#FF9619"/>
</g>
</g>
</g>
</g>
</g>
</g>
<defs>
<clipPath id="clip0_828_5118">
<rect width="1280" height="9382" fill="white" transform="translate(-230.181 -6058.78)"/>
</clipPath>
</defs>
</svg>
